<svg id="svg_help_product_9" xmlns="http://www.w3.org/2000/svg" viewBox="0 0 350 416.5">
  <style>
    #svg_help_product_9 .st0{fill:#F2F2F2;} #svg_help_product_9 .st1{fill:#D7EDFF;} #svg_help_product_9 .st2{fill:#BC1200;} #svg_help_product_9 .st3{fill:#00E582;stroke:#000000;stroke-width:2;stroke-miterlimit:10;} #svg_help_product_9 .st4{fill:#6C6C6C;} #svg_help_product_9 .st5{fill:#00E582;} #svg_help_product_9 .st6{stroke:#000000;stroke-width:3;stroke-miterlimit:10;} #svg_help_product_9 .st7{fill:#AFAFAF;} #svg_help_product_9 .st8{fill:#DBCCA9;stroke:#000000;stroke-width:3;stroke-miterlimit:10;} #svg_help_product_9 .st9{fill:#E42320;} #svg_help_product_9 .st10{fill:#FFFFFF;} #svg_help_product_9 .st11{fill:#FFE400;} #svg_help_product_9 .st12{fill:#0080FF;} #svg_help_product_9 .st13{fill:#0067BC;} #svg_help_product_9 .st14{fill:#FFA100;} #svg_help_product_9 .st15{stroke:#000000;stroke-width:2;stroke-miterlimit:10;} #svg_help_product_9 .st16{fill:#444444;stroke:#000000;stroke-width:2;stroke-miterlimit:10;} #svg_help_product_9 .st17{fill:#C1003C;} #svg_help_product_9 .st18{fill:#FC004E;} #svg_help_product_9 .st19{fill:#8B00BF;} #svg_help_product_9 .st20{fill:#A100FF;} #svg_help_product_9 .st21{fill:none;stroke:#000000;stroke-width:3;stroke-linecap:round;stroke-linejoin:round;} #svg_help_product_9 .st22{fill:none;stroke:#000000;stroke-width:3;stroke-linecap:round;stroke-linejoin:round;stroke-dasharray:14.1826,9.4551;} #svg_help_product_9 .st23{fill:none;stroke:#000000;stroke-width:3;stroke-linecap:round;stroke-linejoin:round;stroke-dasharray:14.175,9.45;} #svg_help_product_9 .st24{fill:none;stroke:#000000;stroke-width:3;stroke-linecap:round;stroke-linejoin:round;stroke-dasharray:12.0832,8.0555;} #svg_help_product_9 .st25{fill:none;stroke:#000000;stroke-width:3;stroke-linecap:round;stroke-linejoin:round;stroke-miterlimit:10;stroke-dasharray:12,8;} #svg_help_product_9 .st26{fill:#E5E5E5;} #svg_help_product_9 .st27{fill:none;stroke:#E5E5E5;stroke-width:3;stroke-linecap:round;stroke-linejoin:round;stroke-miterlimit:10;} #svg_help_product_9 .st28{fill:#1D1E1C;} #svg_help_product_9 .st29{fill:#0093C6;} #svg_help_product_9 .st30{fill:url(#SVGID_1_);} #svg_help_product_9 .st31{fill:url(#SVGID_2_);} #svg_help_product_9 .st32{fill:#6DFCB5;} #svg_help_product_9 .st33{fill:none;stroke:#000000;stroke-width:3;stroke-miterlimit:10;} #svg_help_product_9 .st34{fill:#E0D500;} #svg_help_product_9 .st35{fill:none;stroke:#000000;stroke-width:3;stroke-linecap:round;stroke-linejoin:round;stroke-miterlimit:10;} #svg_help_product_9 .st36{opacity:0.25;} #svg_help_product_9 .st37{fill:none;stroke:#000000;stroke-width:2;stroke-miterlimit:10;} #svg_help_product_9 .st38{fill:none;stroke:#000000;stroke-width:3;stroke-linecap:round;stroke-linejoin:round;stroke-dasharray:14.3163,9.5442;} #svg_help_product_9 .st39{fill:none;stroke:#000000;stroke-width:3;stroke-linecap:round;stroke-linejoin:round;stroke-dasharray:14.636,9.7574;} #svg_help_product_9 .st40{fill:none;stroke:#000000;stroke-width:3;stroke-linecap:round;stroke-linejoin:round;stroke-dasharray:13.8351,9.2234;} #svg_help_product_9 .st41{fill:none;stroke:#000000;stroke-width:3;stroke-linecap:round;stroke-linejoin:round;stroke-dasharray:14.6007,9.7338;} #svg_help_product_9 .st42{fill:none;stroke:#000000;stroke-width:3;stroke-linecap:round;stroke-linejoin:round;stroke-dasharray:14.8718,9.9145;} #svg_help_product_9 .st43{fill:none;stroke:#000000;stroke-width:3;stroke-linecap:round;stroke-linejoin:round;stroke-dasharray:13.7735,9.1823;} #svg_help_product_9 .st44{fill:none;stroke:#000000;stroke-width:3;stroke-linecap:round;stroke-linejoin:round;stroke-dasharray:14.6853,9.7902;} #svg_help_product_9 .st45{fill:none;stroke:#000000;stroke-width:3;stroke-linecap:round;stroke-linejoin:round;stroke-dasharray:14.3237,9.5491;} #svg_help_product_9 .st46{fill:none;stroke:#000000;stroke-width:3;stroke-linecap:round;stroke-linejoin:round;stroke-dasharray:12.437,8.2913;} #svg_help_product_9 .st47{fill:none;stroke:#000000;stroke-width:3;stroke-linecap:round;stroke-linejoin:round;stroke-dasharray:9.6266,6.4178;} #svg_help_product_9 .st48{fill:none;stroke:#000000;stroke-width:3;stroke-linecap:round;stroke-linejoin:round;stroke-dasharray:9.2976,6.1984;} #svg_help_product_9 .st49{fill:none;stroke:#000000;stroke-width:3;stroke-linecap:round;stroke-linejoin:round;stroke-dasharray:10.3174,6.8783;} #svg_help_product_9 .st50{fill:none;stroke:#000000;stroke-width:3;stroke-linecap:round;stroke-linejoin:round;stroke-dasharray:9.2943,6.1962;} #svg_help_product_9 .st51{fill:none;stroke:#000000;stroke-width:3;stroke-linecap:round;stroke-linejoin:round;stroke-dasharray:9.552,6.368;} #svg_help_product_9 .st52{fill:none;stroke:#000000;stroke-width:3;stroke-linecap:round;stroke-linejoin:round;stroke-dasharray:10.171,6.7807;} #svg_help_product_9 .st53{fill:none;stroke:#000000;stroke-width:3;stroke-linecap:round;stroke-linejoin:round;stroke-dasharray:9.2766,6.1844;} #svg_help_product_9 .st54{fill:none;stroke:#000000;stroke-width:3;stroke-linecap:round;stroke-linejoin:round;stroke-dasharray:9.7099,6.4732;} #svg_help_product_9 .st55{fill:none;stroke:#000000;stroke-width:3;stroke-linecap:round;stroke-linejoin:round;stroke-dasharray:12.4608,8.3072;} #svg_help_product_9 .st56{fill:none;stroke:#000000;stroke-width:3;stroke-linecap:round;stroke-linejoin:round;stroke-dasharray:12.2348,8.1565;} #svg_help_product_9 .st57{fill:none;stroke:#000000;stroke-width:2.6091;stroke-linecap:round;stroke-linejoin:round;} #svg_help_product_9 .st58{fill:none;stroke:#000000;stroke-width:2.6091;stroke-linecap:round;stroke-linejoin:round;stroke-dasharray:10.4621,6.9747;} #svg_help_product_9 .st59{fill:none;stroke:#000000;stroke-width:2.6091;stroke-linecap:round;stroke-linejoin:round;stroke-dasharray:10.2553,6.8369;} #svg_help_product_9 .st60{fill:none;stroke:#000000;stroke-width:2.6091;stroke-linecap:round;stroke-linejoin:round;stroke-dasharray:11.5547,7.7031;} #svg_help_product_9 .st61{fill:none;stroke:#000000;stroke-width:2.6091;stroke-linecap:round;stroke-linejoin:round;stroke-miterlimit:10;stroke-dasharray:10.4365,6.9577;} #svg_help_product_9 .st62{fill:none;stroke:#000000;stroke-width:2.609;stroke-linecap:round;stroke-linejoin:round;} #svg_help_product_9 .st63{fill:none;stroke:#000000;stroke-width:2.609;stroke-linecap:round;stroke-linejoin:round;stroke-dasharray:10.4419,6.9613;} #svg_help_product_9 .st64{fill:none;stroke:#000000;stroke-width:2.609;stroke-linecap:round;stroke-linejoin:round;stroke-dasharray:10.6959,7.1306;} #svg_help_product_9 .st65{fill:none;stroke:#000000;stroke-width:2.609;stroke-linecap:round;stroke-linejoin:round;stroke-dasharray:11.235,7.49;} #svg_help_product_9 .st66{fill:none;stroke:#000000;stroke-width:2.609;stroke-linecap:round;stroke-linejoin:round;stroke-dasharray:10.6932,7.1288;} #svg_help_product_9 .st67{fill:none;stroke:#000000;stroke-width:2.609;stroke-linecap:round;stroke-linejoin:round;stroke-dasharray:10.3839,6.9226;} #svg_help_product_9 .st68{fill:none;stroke:#000000;stroke-width:2.609;stroke-linecap:round;stroke-linejoin:round;stroke-dasharray:10.7085,7.139;} #svg_help_product_9 .st69{fill:none;stroke:#000000;stroke-width:2.609;stroke-linecap:round;stroke-linejoin:round;stroke-dasharray:10.4372,6.9581;} #svg_help_product_9 .st70{fill:none;stroke:#000000;stroke-width:2.609;stroke-linecap:round;stroke-linejoin:round;stroke-dasharray:10.4655,6.977;} #svg_help_product_9 .st71{fill:none;stroke:#000000;stroke-width:2.609;stroke-linecap:round;stroke-linejoin:round;stroke-dasharray:10.1171,6.7447;} #svg_help_product_9 .st72{fill:none;stroke:#000000;stroke-width:2.609;stroke-linecap:round;stroke-linejoin:round;stroke-miterlimit:10;stroke-dasharray:10.4365,6.9577;} #svg_help_product_9 .st73{fill:none;stroke:#000000;stroke-width:2.3394;stroke-linecap:round;stroke-linejoin:round;stroke-miterlimit:10;stroke-dasharray:9.3577,6.2385;} #svg_help_product_9 .st74{fill:none;stroke:#000000;stroke-width:3;stroke-linecap:round;stroke-linejoin:round;stroke-dasharray:13.9844,9.3229;} #svg_help_product_9 .st75{fill:none;stroke:#000000;stroke-width:3;stroke-linecap:round;stroke-linejoin:round;stroke-dasharray:11.8721,7.9147;} #svg_help_product_9 .st76{fill:none;stroke:#000000;stroke-width:3;stroke-linecap:round;stroke-linejoin:round;stroke-dasharray:11.8454,7.8969;} #svg_help_product_9 .st77{fill:none;stroke:#000000;stroke-width:3;stroke-linecap:round;stroke-linejoin:round;stroke-dasharray:12.0674,8.0449;} #svg_help_product_9 .st78{fill:none;stroke:#000000;stroke-width:3;stroke-linecap:round;stroke-linejoin:round;stroke-dasharray:10.4196,6.9464;} #svg_help_product_9 .st79{fill:none;stroke:#000000;stroke-width:3;stroke-linecap:round;stroke-linejoin:round;stroke-dasharray:12.5054,8.3369;} #svg_help_product_9 .st80{fill:none;stroke:#000000;stroke-width:3;stroke-linecap:round;stroke-linejoin:round;stroke-dasharray:11.5784,7.7189;}
  </style>
  <path class="st0" d="M0 0h350v416.5H0z"/>
  <path class="st26" d="M106.7 95.4c-5.2 0-9.5-4.2-9.6-9.5v-.1c0-5.7 4.6-10.4 10.3-10.4 1.4 0 2.8.3 4 .8 2.6-3.3 6.7-5.4 11.3-5.4 6.4 0 11.7 4.1 13.7 9.9 1.1-.6 2.4-.9 3.8-.9 4.5 0 8.2 3.7 8.2 8.3 0 4-3.3 7.3-7.4 7.3h-34.3z"/>
  <path class="st1" d="M83.3 107.7c-2.6 0-4.8-2.1-4.8-4.7 0-2.9 2.3-5.2 5.2-5.2.7 0 1.4.1 2 .4 1.3-1.7 3.4-2.7 5.6-2.7 3.2 0 5.9 2.1 6.8 4.9.6-.3 1.2-.5 1.9-.5 2.3 0 4.1 1.9 4.1 4.1 0 2-1.7 3.7-3.7 3.7H83.3z"/>
  <path class="st26" d="M285.6 135.2c2.8 0 5-2.2 5-5 0-3-2.4-5.5-5.4-5.5-.7 0-1.5.2-2.1.4-1.4-1.7-3.5-2.9-5.9-2.9-3.3 0-6.2 2.2-7.2 5.2-.6-.3-1.3-.5-2-.5-2.4 0-4.3 1.9-4.3 4.3 0 2.1 1.7 3.8 3.9 3.8h18z"/>
  <path class="st1" d="M247.8 118.3c-3.7 0-6.7-3-6.7-6.7 0-4 3.2-7.3 7.2-7.3 1 0 1.9.2 2.8.6 1.9-2.3 4.7-3.8 7.9-3.8 4.5 0 8.3 2.9 9.6 6.9.8-.4 1.7-.7 2.7-.7 3.2 0 5.8 2.6 5.8 5.8 0 2.8-2.3 5.1-5.2 5.1h-24.1z"/>
  <path class="st27" d="M99.5 116.6H66.1M59.5 116.6h-5.6M45 116.6H16.1M323.4 88.7H263M256.4 88.7h-5.6M241.9 88.7h-29.1M87.1 126.1H53.9M269.5 80.1h-33.4M337.9 96.8h-29.1"/>
  <g>
    <path class="st1" d="M296 171.2c-2.3-2.3-5.5-3.5-8.4-4-1.7-.6-4-.9-6.6-.3-1.7 0-3.5.3-4.6.3-.6 0-1.4 0-1.7.3-.9 0-2.6.3-4.3.3-4.3.3-17.6 1.4-21.3.6-.9-2-1.7-7.8-2.6-13.5-1.2-6.9-2.3-15.6-4.6-25.9-4.3-21.9-24.2-25.6-34-24.5H150.5c-10.1-1.2-29.7 2.6-34.3 24.5-2 10.4-3.5 19-4.6 25.9-.9 5.8-1.7 11.5-2.6 13.5-3.7.9-16.7-.3-21.3-.6-2 0-3.5-.3-4.3-.3-.6 0-1.2 0-1.7-.3-1.2 0-2.9-.3-4.6-.3-2.6-.3-4.9 0-6.6.3-2.9.6-6 1.7-8.4 4-3.5 3.2-4.9 7.8-4.6 14.1.3 5.2 2.3 51.8 8.9 72.9 5.8 17.6 16.7 40.6 45.5 40.6h7.8l-10.4 42c-.3 3.2 2 6.3 5.5 6.6h.9c3.2 0 5.8-2.3 6-5.2l10.4-43.5v-.3h.3l-5.5 21.9c0 2.3 2 4 4.9 4h.3c2.6 0 4.9-1.7 4.9-3.7l5.5-22.5H216l3.8 21.9c0 2.3 1.2 4 4.1 4h1.1c2.6 0 5.1-2.3 5.1-4.3l-4.4-18.7 9.7 41.5c.3 2.9 2.9 5.2 6 5.2h.9c3.5-.6 5.8-3.5 5.5-6.6l-9.7-42h7.8c29.1 0 40-23.3 45.5-40.6 6.9-21 8.9-67.7 8.9-72.9.9-6.4-.9-11.2-4.3-14.4z"/>
    <path class="st73" d="M288.2 171.2c-2.3-2.3-5.5-3.5-8.4-4-1.7-.6-4-.9-6.6-.3-1.7 0-3.5.3-4.6.3-.6 0-1.4 0-1.7.3-.9 0-2.6.3-4.3.3-4.3.3-17.6 1.4-21.3.6-.9-2-1.7-7.8-2.6-13.5-1.2-6.9-2.3-15.6-4.6-25.9-4.3-21.9-24.2-25.6-34-24.5H142.7c-10.1-1.2-29.7 2.6-34.3 24.5-2 10.4-3.5 19-4.6 25.9-.9 5.8-1.7 11.5-2.6 13.5-3.7.9-16.7-.3-21.3-.6-2 0-3.5-.3-4.3-.3-.6 0-1.2 0-1.7-.3-1.2 0-2.9-.3-4.6-.3-2.6-.3-4.9 0-6.6.3-2.9.6-6 1.7-8.4 4-3.5 3.2-4.9 7.8-4.6 14.1.3 5.2 2.3 51.8 8.9 72.9 5.8 17.6 16.7 40.6 45.5 40.6h7.8l-10.4 42c-.3 3.2 2 6.3 5.5 6.6h.9c3.2 0 5.8-2.3 6-5.2l10.4-43.5v-.3h.3l-5.5 21.9c0 2.3 2 4 4.9 4h.3c2.6 0 4.9-1.7 4.9-3.7l5.5-22.5h73.5L212 320c0 2.3 1.2 4 4.1 4h1.1c2.6 0 5.1-2.3 5.1-4.3l-4.4-18.7 9.7 41.5c.3 2.9 2.9 5.2 6 5.2h.9c3.5-.6 5.8-3.5 5.5-6.6l-9.7-42h7.8c29.1 0 40-23.3 45.5-40.6 6.9-21 8.9-67.7 8.9-72.9.9-6.4-.9-11.2-4.3-14.4z"/>
    <path class="st73" d="M249.3 214.7c-1.2-1.7-2.6-3.5-4.3-5.2-6.6-6.3-14.7-8.6-20.4-9.5 2.9-13.5 10.9-21 14.4-23.6M103.6 176.1c3.5 2.6 11.5 10.1 14.4 23.6-5.8.9-13.8 3.2-20.4 9.5-1.7 1.4-2.9 3.2-4.3 5.2"/>
    <path class="st73" d="M68.5 174.9c2.6.6 6 2.6 8.4 9.5 6 17.6 10.9 39.7 10.4 48.1h.3c-.3 2-.3 4.3-.3 6.6 0 7.2 2.3 12.7 6.3 16.7 6.3 6 15.6 6.9 23.9 6.9 2.3 0 4.6 0 6.6-.3h3.7c10.9 0 35.1.3 42.3.3h2.4c7.2 0 31.7-.3 42.3-.3h3.7c2 0 4.3.3 6.6.3 8.4 0 17.6-1.2 23.9-6.9 4-4 6.3-9.5 6.3-16.7 0-2.3 0-4.6-.3-6.6h.3c-.6-8.4 4-30.2 10.4-48.1 2.3-6.6 5.8-8.9 8.4-9.5M96.5 217.7h148.3"/>
  </g>
</svg>
