<svg id="svg_help_product_2" xmlns="http://www.w3.org/2000/svg" viewBox="0 0 350 416.5">
  <style>
    #svg_help_product_2 .st0{fill:#F2F2F2;} #svg_help_product_2 .st1{fill:#D7EDFF;} #svg_help_product_2 .st2{fill:#BC1200;} #svg_help_product_2 .st3{fill:#00E582;stroke:#000000;stroke-width:2;stroke-miterlimit:10;} #svg_help_product_2 .st4{fill:#6C6C6C;} #svg_help_product_2 .st5{fill:#00E582;} #svg_help_product_2 .st6{stroke:#000000;stroke-width:3;stroke-miterlimit:10;} #svg_help_product_2 .st7{fill:#AFAFAF;} #svg_help_product_2 .st8{fill:#DBCCA9;stroke:#000000;stroke-width:3;stroke-miterlimit:10;} #svg_help_product_2 .st9{fill:#E42320;} #svg_help_product_2 .st10{fill:#FFFFFF;} #svg_help_product_2 .st11{fill:#FFE400;} #svg_help_product_2 .st12{fill:#0080FF;} #svg_help_product_2 .st13{fill:#0067BC;} #svg_help_product_2 .st14{fill:#FFA100;} #svg_help_product_2 .st15{stroke:#000000;stroke-width:2;stroke-miterlimit:10;} #svg_help_product_2 .st16{fill:#444444;stroke:#000000;stroke-width:2;stroke-miterlimit:10;} #svg_help_product_2 .st17{fill:#C1003C;} #svg_help_product_2 .st18{fill:#FC004E;} #svg_help_product_2 .st19{fill:#8B00BF;} #svg_help_product_2 .st20{fill:#A100FF;} #svg_help_product_2 .st21{fill:none;stroke:#000000;stroke-width:3;stroke-linecap:round;stroke-linejoin:round;} #svg_help_product_2 .st22{fill:none;stroke:#000000;stroke-width:3;stroke-linecap:round;stroke-linejoin:round;stroke-dasharray:14.1826,9.4551;} #svg_help_product_2 .st23{fill:none;stroke:#000000;stroke-width:3;stroke-linecap:round;stroke-linejoin:round;stroke-dasharray:14.175,9.45;} #svg_help_product_2 .st24{fill:none;stroke:#000000;stroke-width:3;stroke-linecap:round;stroke-linejoin:round;stroke-dasharray:12.0832,8.0555;} #svg_help_product_2 .st25{fill:none;stroke:#000000;stroke-width:3;stroke-linecap:round;stroke-linejoin:round;stroke-miterlimit:10;stroke-dasharray:12,8;} #svg_help_product_2 .st26{fill:#E5E5E5;} #svg_help_product_2 .st27{fill:none;stroke:#E5E5E5;stroke-width:3;stroke-linecap:round;stroke-linejoin:round;stroke-miterlimit:10;} #svg_help_product_2 .st28{fill:#1D1E1C;} #svg_help_product_2 .st29{fill:#0093C6;} #svg_help_product_2 .st30{fill:url(#SVGID_1_);} #svg_help_product_2 .st31{fill:url(#SVGID_2_);} #svg_help_product_2 .st32{fill:#6DFCB5;} #svg_help_product_2 .st33{fill:none;stroke:#000000;stroke-width:3;stroke-miterlimit:10;} #svg_help_product_2 .st34{fill:#E0D500;} #svg_help_product_2 .st35{fill:none;stroke:#000000;stroke-width:3;stroke-linecap:round;stroke-linejoin:round;stroke-miterlimit:10;} #svg_help_product_2 .st36{opacity:0.25;} #svg_help_product_2 .st37{fill:none;stroke:#000000;stroke-width:2;stroke-miterlimit:10;} #svg_help_product_2 .st38{fill:none;stroke:#000000;stroke-width:3;stroke-linecap:round;stroke-linejoin:round;stroke-dasharray:14.3163,9.5442;} #svg_help_product_2 .st39{fill:none;stroke:#000000;stroke-width:3;stroke-linecap:round;stroke-linejoin:round;stroke-dasharray:14.636,9.7574;} #svg_help_product_2 .st40{fill:none;stroke:#000000;stroke-width:3;stroke-linecap:round;stroke-linejoin:round;stroke-dasharray:13.8351,9.2234;} #svg_help_product_2 .st41{fill:none;stroke:#000000;stroke-width:3;stroke-linecap:round;stroke-linejoin:round;stroke-dasharray:14.6007,9.7338;} #svg_help_product_2 .st42{fill:none;stroke:#000000;stroke-width:3;stroke-linecap:round;stroke-linejoin:round;stroke-dasharray:14.8718,9.9145;} #svg_help_product_2 .st43{fill:none;stroke:#000000;stroke-width:3;stroke-linecap:round;stroke-linejoin:round;stroke-dasharray:13.7735,9.1823;} #svg_help_product_2 .st44{fill:none;stroke:#000000;stroke-width:3;stroke-linecap:round;stroke-linejoin:round;stroke-dasharray:14.6853,9.7902;} #svg_help_product_2 .st45{fill:none;stroke:#000000;stroke-width:3;stroke-linecap:round;stroke-linejoin:round;stroke-dasharray:14.3237,9.5491;} #svg_help_product_2 .st46{fill:none;stroke:#000000;stroke-width:3;stroke-linecap:round;stroke-linejoin:round;stroke-dasharray:12.437,8.2913;} #svg_help_product_2 .st47{fill:none;stroke:#000000;stroke-width:3;stroke-linecap:round;stroke-linejoin:round;stroke-dasharray:9.6266,6.4178;} #svg_help_product_2 .st48{fill:none;stroke:#000000;stroke-width:3;stroke-linecap:round;stroke-linejoin:round;stroke-dasharray:9.2976,6.1984;} #svg_help_product_2 .st49{fill:none;stroke:#000000;stroke-width:3;stroke-linecap:round;stroke-linejoin:round;stroke-dasharray:10.3174,6.8783;} #svg_help_product_2 .st50{fill:none;stroke:#000000;stroke-width:3;stroke-linecap:round;stroke-linejoin:round;stroke-dasharray:9.2943,6.1962;} #svg_help_product_2 .st51{fill:none;stroke:#000000;stroke-width:3;stroke-linecap:round;stroke-linejoin:round;stroke-dasharray:9.552,6.368;} #svg_help_product_2 .st52{fill:none;stroke:#000000;stroke-width:3;stroke-linecap:round;stroke-linejoin:round;stroke-dasharray:10.171,6.7807;} #svg_help_product_2 .st53{fill:none;stroke:#000000;stroke-width:3;stroke-linecap:round;stroke-linejoin:round;stroke-dasharray:9.2766,6.1844;} #svg_help_product_2 .st54{fill:none;stroke:#000000;stroke-width:3;stroke-linecap:round;stroke-linejoin:round;stroke-dasharray:9.7099,6.4732;} #svg_help_product_2 .st55{fill:none;stroke:#000000;stroke-width:3;stroke-linecap:round;stroke-linejoin:round;stroke-dasharray:12.4608,8.3072;} #svg_help_product_2 .st56{fill:none;stroke:#000000;stroke-width:3;stroke-linecap:round;stroke-linejoin:round;stroke-dasharray:12.2348,8.1565;} #svg_help_product_2 .st57{fill:none;stroke:#000000;stroke-width:2.6091;stroke-linecap:round;stroke-linejoin:round;} #svg_help_product_2 .st58{fill:none;stroke:#000000;stroke-width:2.6091;stroke-linecap:round;stroke-linejoin:round;stroke-dasharray:10.4621,6.9747;} #svg_help_product_2 .st59{fill:none;stroke:#000000;stroke-width:2.6091;stroke-linecap:round;stroke-linejoin:round;stroke-dasharray:10.2553,6.8369;} #svg_help_product_2 .st60{fill:none;stroke:#000000;stroke-width:2.6091;stroke-linecap:round;stroke-linejoin:round;stroke-dasharray:11.5547,7.7031;} #svg_help_product_2 .st61{fill:none;stroke:#000000;stroke-width:2.6091;stroke-linecap:round;stroke-linejoin:round;stroke-miterlimit:10;stroke-dasharray:10.4365,6.9577;} #svg_help_product_2 .st62{fill:none;stroke:#000000;stroke-width:2.609;stroke-linecap:round;stroke-linejoin:round;} #svg_help_product_2 .st63{fill:none;stroke:#000000;stroke-width:2.609;stroke-linecap:round;stroke-linejoin:round;stroke-dasharray:10.4419,6.9613;} #svg_help_product_2 .st64{fill:none;stroke:#000000;stroke-width:2.609;stroke-linecap:round;stroke-linejoin:round;stroke-dasharray:10.6959,7.1306;} #svg_help_product_2 .st65{fill:none;stroke:#000000;stroke-width:2.609;stroke-linecap:round;stroke-linejoin:round;stroke-dasharray:11.235,7.49;} #svg_help_product_2 .st66{fill:none;stroke:#000000;stroke-width:2.609;stroke-linecap:round;stroke-linejoin:round;stroke-dasharray:10.6932,7.1288;} #svg_help_product_2 .st67{fill:none;stroke:#000000;stroke-width:2.609;stroke-linecap:round;stroke-linejoin:round;stroke-dasharray:10.3839,6.9226;} #svg_help_product_2 .st68{fill:none;stroke:#000000;stroke-width:2.609;stroke-linecap:round;stroke-linejoin:round;stroke-dasharray:10.7085,7.139;} #svg_help_product_2 .st69{fill:none;stroke:#000000;stroke-width:2.609;stroke-linecap:round;stroke-linejoin:round;stroke-dasharray:10.4372,6.9581;} #svg_help_product_2 .st70{fill:none;stroke:#000000;stroke-width:2.609;stroke-linecap:round;stroke-linejoin:round;stroke-dasharray:10.4655,6.977;} #svg_help_product_2 .st71{fill:none;stroke:#000000;stroke-width:2.609;stroke-linecap:round;stroke-linejoin:round;stroke-dasharray:10.1171,6.7447;} #svg_help_product_2 .st72{fill:none;stroke:#000000;stroke-width:2.609;stroke-linecap:round;stroke-linejoin:round;stroke-miterlimit:10;stroke-dasharray:10.4365,6.9577;} #svg_help_product_2 .st73{fill:none;stroke:#000000;stroke-width:2.3394;stroke-linecap:round;stroke-linejoin:round;stroke-miterlimit:10;stroke-dasharray:9.3577,6.2385;} #svg_help_product_2 .st74{fill:none;stroke:#000000;stroke-width:3;stroke-linecap:round;stroke-linejoin:round;stroke-dasharray:13.9844,9.3229;} #svg_help_product_2 .st75{fill:none;stroke:#000000;stroke-width:3;stroke-linecap:round;stroke-linejoin:round;stroke-dasharray:11.8721,7.9147;} #svg_help_product_2 .st76{fill:none;stroke:#000000;stroke-width:3;stroke-linecap:round;stroke-linejoin:round;stroke-dasharray:11.8454,7.8969;} #svg_help_product_2 .st77{fill:none;stroke:#000000;stroke-width:3;stroke-linecap:round;stroke-linejoin:round;stroke-dasharray:12.0674,8.0449;} #svg_help_product_2 .st78{fill:none;stroke:#000000;stroke-width:3;stroke-linecap:round;stroke-linejoin:round;stroke-dasharray:10.4196,6.9464;} #svg_help_product_2 .st79{fill:none;stroke:#000000;stroke-width:3;stroke-linecap:round;stroke-linejoin:round;stroke-dasharray:12.5054,8.3369;} #svg_help_product_2 .st80{fill:none;stroke:#000000;stroke-width:3;stroke-linecap:round;stroke-linejoin:round;stroke-dasharray:11.5784,7.7189;}
  </style>
  <path class="st0" d="M0 0h350v416.5H0z"/>
  <path class="st1" d="M142 47.5l-.6.3c-.6.1-1.1.3-1.6.6h-.3c-2.7.6-4.4 3.3-3.8 6 5.8 30.8 1.6 54.5-19.5 70.6-1 .8-1.7 1.9-1.9 3.1 0 0-22 173.2-32.7 226.4-.5 2.6.4 5.3 1.9 7.2 1.5 2 3.4 3.2 5.3 4.1 4 1.8 8.8 2.8 13.5 2.8 4.7 0 9.4-.8 13.5-2.5 2.1-.9 4-2 5.7-3.8 1.6-1.7 2.8-4.2 2.8-6.9 0-3-.7-5.5-.9-6.9-.1-.4-.3-.2-.3-.3v-.3l.3-.3c1.4-1 3.9-1.6 6.6-1.6 2.6 0 4.5.9 6 1.9-.1.3.1.3 0 .6-.3 1-.8 2.3-.9 4.1-.1 1.7.3 4.7 2.2 6.6 5.8 5.8 12.7 9.1 19.8 9.1 7.1 0 14-3.3 19.8-9.1 1.9-1.9 2.3-4.8 2.2-6.6-.1-1.7-.9-3.1-1.3-4.1-.1-.3.1-.4 0-.6 1.4-1 3.6-1.9 6.3-1.9 2.6 0 4.5.9 6 1.9-.1.3.1.3 0 .6-.3 1-.8 2.3-.9 4.1-.1 1.7 0 4.7 1.9 6.6 5.8 5.8 13 9.1 20.1 9.1 2.1 0 3.9-.4 6-.9.7-.1 1.3-.3 1.9-.6 4.2-1.5 8.4-4 11.9-7.5 1.9-1.9 2-4.8 1.9-6.6-.1-1.7-.6-3.1-.9-4.1-.1-.3.1-.4 0-.6 1.4-1 3.3-1.9 6-1.9 2.9 0 5.6.8 6.9 1.9 0 0 .1-.1 0 .6-.2 1.4-.9 3.9-.9 6.9 0 2.7.9 5.2 2.5 6.9 1.6 1.7 3.9 2.9 6 3.8 4.1 1.8 8.5 2.8 13.2 2.8 4.7 0 9.2-1 13.2-2.8 2-.9 3.9-2.1 5.3-4.1 1.5-2 2.6-4.6 2.2-7.2-10.8-75.5-32.3-226.7-32.3-226.7-.3-1.7-1.5-3.1-3.1-3.8-10.6-4.7-16.9-12.4-20.1-23.9-3.2-11.4-2.7-27 1.6-46.2.8-2.7-.8-5.6-3.5-6.4-.6-.2-1.2-.2-1.8-.2H226c-2.8 0-5 2.2-5.1 5v.7c0 9.5-3.5 18.3-9.4 24.8-6.7 7.3-16.3 11.9-27 11.9-20.2 0-36.7-16.5-36.7-36.7v-.6c.2-2.8-1.9-5.2-4.7-5.3H142z"/>
  <path class="st21" d="M115.5 353.7c-.2-2.2-.7-4-.9-5.1-.1-.4-.3-.2-.3-.3v-.3l.3-.3c1.2-.9 3.1-1.4 5.3-1.5M121.5 346.1c2.5.1 4.2.9 5.6 1.9-.1.3.1.3 0 .6-.3 1-.8 2.3-.9 4.1v1.2"/>
  <path class="st22" d="M131 361.6c5.2 4.3 11.2 6.8 17.2 6.8 7.1 0 14-3.3 19.8-9.1.3-.3.6-.7.8-1"/>
  <path class="st21" d="M170.2 353.8v-1.1c-.1-1.7-.9-3.1-1.3-4.1-.1-.3.1-.4 0-.6 1.3-.9 3.3-1.7 5.6-1.9M175.5 346.1c2.5.1 4.2.9 5.6 1.9-.1.3.1.3 0 .6-.3 1-.8 2.3-.9 4.1v1.2"/>
  <path class="st23" d="M184.7 361.7c5.3 4.3 11.4 6.7 17.5 6.7 2.1 0 3.9-.4 6-.9.7-.1 1.3-.3 1.9-.6 4.2-1.5 8.4-4 11.9-7.5.3-.3.5-.6.7-.9"/>
  <path class="st21" d="M223.9 353.9v-1.2c-.1-1.7-.6-3.1-.9-4.1-.1-.3.1-.4 0-.6 1.4-1 3.1-1.8 5.6-1.9M230.2 346.1c2.4.2 4.5.9 5.6 1.8 0 0 .1-.1 0 .6-.2 1.2-.7 3-.9 5.2"/>
  <path class="st24" d="M236.7 361.5c.2.3.4.6.7.9 1.6 1.7 3.9 2.9 6 3.8 4.1 1.8 8.5 2.8 13.2 2.8 4.7 0 9.2-1 13.2-2.8 2-.9 3.9-2.1 5.3-4.1 1.5-2 2.6-4.6 2.2-7.2-10.8-75.5-32.3-226.7-32.3-226.7-.3-1.7-1.5-3.1-3.1-3.8-10.6-4.7-16.9-12.4-20.1-23.9-3.2-11.4-2.7-27 1.6-46.2.8-2.7-.8-5.6-3.5-6.4-.6-.2-1.2-.2-1.8-.2h-1.2c-2.8 0-5 2.2-5.1 5v.7c0 9.5-3.5 18.3-9.4 24.8-6.7 7.3-16.3 11.9-27 11.9-20.2 0-36.7-16.5-36.7-36.7v-.6c.2-2.8-1.9-5.2-4.7-5.3h-.6l-.6.3c-.6.1-1.1.3-1.6.6h-.3c-2.7.6-4.4 3.3-3.8 6 5.8 30.8 1.6 54.5-19.5 70.6-1 .8-1.7 1.9-1.9 3.1 0 0-22 173.2-32.7 226.4-.5 2.6.4 5.3 1.9 7.2 1.5 2 3.4 3.2 5.3 4.1 4 1.8 8.8 2.8 13.5 2.8 4.7 0 9.4-.8 13.5-2.5 2.1-.9 4-2 5.7-3.8 1.2-1.2 2.1-2.9 2.6-4.7"/>
  <path class="st25" d="M122.3 339l12.9-156.3M228 339l-12.9-156.3M175.2 340.1V146.7"/>
  <g>
    <path class="st26" d="M80.6 105.5c-5.2 0-9.5-4.2-9.6-9.5v-.1c0-5.7 4.6-10.4 10.3-10.4 1.4 0 2.8.3 4 .8 2.6-3.3 6.7-5.4 11.3-5.4 6.4 0 11.7 4.1 13.7 9.9 1.1-.6 2.4-.9 3.8-.9 4.5 0 8.2 3.7 8.2 8.3 0 4-3.3 7.3-7.4 7.3H80.6z"/>
    <path class="st1" d="M57.2 117.8c-2.6 0-4.8-2.1-4.8-4.7 0-2.9 2.3-5.2 5.2-5.2.7 0 1.4.1 2 .4 1.3-1.7 3.4-2.7 5.6-2.7 3.2 0 5.9 2.1 6.8 4.9.6-.3 1.2-.5 1.9-.5 2.3 0 4.1 1.9 4.1 4.1 0 2-1.7 3.7-3.7 3.7H57.2z"/>
    <path class="st26" d="M301.4 139.7c2.8 0 5-2.2 5-5 0-3-2.4-5.5-5.4-5.5-.7 0-1.5.2-2.1.4-1.4-1.7-3.5-2.9-5.9-2.9-3.3 0-6.2 2.2-7.2 5.2-.6-.3-1.3-.5-2-.5-2.4 0-4.3 1.9-4.3 4.3 0 2.1 1.7 3.8 3.9 3.8h18z"/>
    <path class="st1" d="M263.6 122.8c-3.7 0-6.7-3-6.7-6.7 0-4 3.2-7.3 7.2-7.3 1 0 1.9.2 2.8.6 1.9-2.3 4.7-3.8 7.9-3.8 4.5 0 8.3 2.9 9.6 6.9.8-.4 1.7-.7 2.7-.7 3.2 0 5.8 2.6 5.8 5.8 0 2.8-2.3 5.1-5.2 5.1h-24.1z"/>
    <path class="st27" d="M86.4 126.8H53M46.4 126.8h-5.7M31.9 126.8H18.7M329.3 93.2h-50.4M272.2 93.2h-5.6M257.8 93.2h-20.2M74 136.2H40.7M285.3 84.6h-33.4"/>
  </g>
</svg>
