<svg id="svg_help_product_4" xmlns="http://www.w3.org/2000/svg" viewBox="0 0 350 416.5">
  <style>
    #svg_help_product_4 .st0{fill:#F2F2F2;} #svg_help_product_4 .st1{fill:#D7EDFF;} #svg_help_product_4 .st2{fill:#BC1200;} #svg_help_product_4 .st3{fill:#00E582;stroke:#000000;stroke-width:2;stroke-miterlimit:10;} #svg_help_product_4 .st4{fill:#6C6C6C;} #svg_help_product_4 .st5{fill:#00E582;} #svg_help_product_4 .st6{stroke:#000000;stroke-width:3;stroke-miterlimit:10;} #svg_help_product_4 .st7{fill:#AFAFAF;} #svg_help_product_4 .st8{fill:#DBCCA9;stroke:#000000;stroke-width:3;stroke-miterlimit:10;} #svg_help_product_4 .st9{fill:#E42320;} #svg_help_product_4 .st10{fill:#FFFFFF;} #svg_help_product_4 .st11{fill:#FFE400;} #svg_help_product_4 .st12{fill:#0080FF;} #svg_help_product_4 .st13{fill:#0067BC;} #svg_help_product_4 .st14{fill:#FFA100;} #svg_help_product_4 .st15{stroke:#000000;stroke-width:2;stroke-miterlimit:10;} #svg_help_product_4 .st16{fill:#444444;stroke:#000000;stroke-width:2;stroke-miterlimit:10;} #svg_help_product_4 .st17{fill:#C1003C;} #svg_help_product_4 .st18{fill:#FC004E;} #svg_help_product_4 .st19{fill:#8B00BF;} #svg_help_product_4 .st20{fill:#A100FF;} #svg_help_product_4 .st21{fill:none;stroke:#000000;stroke-width:3;stroke-linecap:round;stroke-linejoin:round;} #svg_help_product_4 .st22{fill:none;stroke:#000000;stroke-width:3;stroke-linecap:round;stroke-linejoin:round;stroke-dasharray:14.1826,9.4551;} #svg_help_product_4 .st23{fill:none;stroke:#000000;stroke-width:3;stroke-linecap:round;stroke-linejoin:round;stroke-dasharray:14.175,9.45;} #svg_help_product_4 .st24{fill:none;stroke:#000000;stroke-width:3;stroke-linecap:round;stroke-linejoin:round;stroke-dasharray:12.0832,8.0555;} #svg_help_product_4 .st25{fill:none;stroke:#000000;stroke-width:3;stroke-linecap:round;stroke-linejoin:round;stroke-miterlimit:10;stroke-dasharray:12,8;} #svg_help_product_4 .st26{fill:#E5E5E5;} #svg_help_product_4 .st27{fill:none;stroke:#E5E5E5;stroke-width:3;stroke-linecap:round;stroke-linejoin:round;stroke-miterlimit:10;} #svg_help_product_4 .st28{fill:#1D1E1C;} #svg_help_product_4 .st29{fill:#0093C6;} #svg_help_product_4 .st30{fill:url(#SVGID_1_);} #svg_help_product_4 .st31{fill:url(#SVGID_2_);} #svg_help_product_4 .st32{fill:#6DFCB5;} #svg_help_product_4 .st33{fill:none;stroke:#000000;stroke-width:3;stroke-miterlimit:10;} #svg_help_product_4 .st34{fill:#E0D500;} #svg_help_product_4 .st35{fill:none;stroke:#000000;stroke-width:3;stroke-linecap:round;stroke-linejoin:round;stroke-miterlimit:10;} #svg_help_product_4 .st36{opacity:0.25;} #svg_help_product_4 .st37{fill:none;stroke:#000000;stroke-width:2;stroke-miterlimit:10;} #svg_help_product_4 .st38{fill:none;stroke:#000000;stroke-width:3;stroke-linecap:round;stroke-linejoin:round;stroke-dasharray:14.3163,9.5442;} #svg_help_product_4 .st39{fill:none;stroke:#000000;stroke-width:3;stroke-linecap:round;stroke-linejoin:round;stroke-dasharray:14.636,9.7574;} #svg_help_product_4 .st40{fill:none;stroke:#000000;stroke-width:3;stroke-linecap:round;stroke-linejoin:round;stroke-dasharray:13.8351,9.2234;} #svg_help_product_4 .st41{fill:none;stroke:#000000;stroke-width:3;stroke-linecap:round;stroke-linejoin:round;stroke-dasharray:14.6007,9.7338;} #svg_help_product_4 .st42{fill:none;stroke:#000000;stroke-width:3;stroke-linecap:round;stroke-linejoin:round;stroke-dasharray:14.8718,9.9145;} #svg_help_product_4 .st43{fill:none;stroke:#000000;stroke-width:3;stroke-linecap:round;stroke-linejoin:round;stroke-dasharray:13.7735,9.1823;} #svg_help_product_4 .st44{fill:none;stroke:#000000;stroke-width:3;stroke-linecap:round;stroke-linejoin:round;stroke-dasharray:14.6853,9.7902;} #svg_help_product_4 .st45{fill:none;stroke:#000000;stroke-width:3;stroke-linecap:round;stroke-linejoin:round;stroke-dasharray:14.3237,9.5491;} #svg_help_product_4 .st46{fill:none;stroke:#000000;stroke-width:3;stroke-linecap:round;stroke-linejoin:round;stroke-dasharray:12.437,8.2913;} #svg_help_product_4 .st47{fill:none;stroke:#000000;stroke-width:3;stroke-linecap:round;stroke-linejoin:round;stroke-dasharray:9.6266,6.4178;} #svg_help_product_4 .st48{fill:none;stroke:#000000;stroke-width:3;stroke-linecap:round;stroke-linejoin:round;stroke-dasharray:9.2976,6.1984;} #svg_help_product_4 .st49{fill:none;stroke:#000000;stroke-width:3;stroke-linecap:round;stroke-linejoin:round;stroke-dasharray:10.3174,6.8783;} #svg_help_product_4 .st50{fill:none;stroke:#000000;stroke-width:3;stroke-linecap:round;stroke-linejoin:round;stroke-dasharray:9.2943,6.1962;} #svg_help_product_4 .st51{fill:none;stroke:#000000;stroke-width:3;stroke-linecap:round;stroke-linejoin:round;stroke-dasharray:9.552,6.368;} #svg_help_product_4 .st52{fill:none;stroke:#000000;stroke-width:3;stroke-linecap:round;stroke-linejoin:round;stroke-dasharray:10.171,6.7807;} #svg_help_product_4 .st53{fill:none;stroke:#000000;stroke-width:3;stroke-linecap:round;stroke-linejoin:round;stroke-dasharray:9.2766,6.1844;} #svg_help_product_4 .st54{fill:none;stroke:#000000;stroke-width:3;stroke-linecap:round;stroke-linejoin:round;stroke-dasharray:9.7099,6.4732;} #svg_help_product_4 .st55{fill:none;stroke:#000000;stroke-width:3;stroke-linecap:round;stroke-linejoin:round;stroke-dasharray:12.4608,8.3072;} #svg_help_product_4 .st56{fill:none;stroke:#000000;stroke-width:3;stroke-linecap:round;stroke-linejoin:round;stroke-dasharray:12.2348,8.1565;} #svg_help_product_4 .st57{fill:none;stroke:#000000;stroke-width:2.6091;stroke-linecap:round;stroke-linejoin:round;} #svg_help_product_4 .st58{fill:none;stroke:#000000;stroke-width:2.6091;stroke-linecap:round;stroke-linejoin:round;stroke-dasharray:10.4621,6.9747;} #svg_help_product_4 .st59{fill:none;stroke:#000000;stroke-width:2.6091;stroke-linecap:round;stroke-linejoin:round;stroke-dasharray:10.2553,6.8369;} #svg_help_product_4 .st60{fill:none;stroke:#000000;stroke-width:2.6091;stroke-linecap:round;stroke-linejoin:round;stroke-dasharray:11.5547,7.7031;} #svg_help_product_4 .st61{fill:none;stroke:#000000;stroke-width:2.6091;stroke-linecap:round;stroke-linejoin:round;stroke-miterlimit:10;stroke-dasharray:10.4365,6.9577;} #svg_help_product_4 .st62{fill:none;stroke:#000000;stroke-width:2.609;stroke-linecap:round;stroke-linejoin:round;} #svg_help_product_4 .st63{fill:none;stroke:#000000;stroke-width:2.609;stroke-linecap:round;stroke-linejoin:round;stroke-dasharray:10.4419,6.9613;} #svg_help_product_4 .st64{fill:none;stroke:#000000;stroke-width:2.609;stroke-linecap:round;stroke-linejoin:round;stroke-dasharray:10.6959,7.1306;} #svg_help_product_4 .st65{fill:none;stroke:#000000;stroke-width:2.609;stroke-linecap:round;stroke-linejoin:round;stroke-dasharray:11.235,7.49;} #svg_help_product_4 .st66{fill:none;stroke:#000000;stroke-width:2.609;stroke-linecap:round;stroke-linejoin:round;stroke-dasharray:10.6932,7.1288;} #svg_help_product_4 .st67{fill:none;stroke:#000000;stroke-width:2.609;stroke-linecap:round;stroke-linejoin:round;stroke-dasharray:10.3839,6.9226;} #svg_help_product_4 .st68{fill:none;stroke:#000000;stroke-width:2.609;stroke-linecap:round;stroke-linejoin:round;stroke-dasharray:10.7085,7.139;} #svg_help_product_4 .st69{fill:none;stroke:#000000;stroke-width:2.609;stroke-linecap:round;stroke-linejoin:round;stroke-dasharray:10.4372,6.9581;} #svg_help_product_4 .st70{fill:none;stroke:#000000;stroke-width:2.609;stroke-linecap:round;stroke-linejoin:round;stroke-dasharray:10.4655,6.977;} #svg_help_product_4 .st71{fill:none;stroke:#000000;stroke-width:2.609;stroke-linecap:round;stroke-linejoin:round;stroke-dasharray:10.1171,6.7447;} #svg_help_product_4 .st72{fill:none;stroke:#000000;stroke-width:2.609;stroke-linecap:round;stroke-linejoin:round;stroke-miterlimit:10;stroke-dasharray:10.4365,6.9577;} #svg_help_product_4 .st73{fill:none;stroke:#000000;stroke-width:2.3394;stroke-linecap:round;stroke-linejoin:round;stroke-miterlimit:10;stroke-dasharray:9.3577,6.2385;} #svg_help_product_4 .st74{fill:none;stroke:#000000;stroke-width:3;stroke-linecap:round;stroke-linejoin:round;stroke-dasharray:13.9844,9.3229;} #svg_help_product_4 .st75{fill:none;stroke:#000000;stroke-width:3;stroke-linecap:round;stroke-linejoin:round;stroke-dasharray:11.8721,7.9147;} #svg_help_product_4 .st76{fill:none;stroke:#000000;stroke-width:3;stroke-linecap:round;stroke-linejoin:round;stroke-dasharray:11.8454,7.8969;} #svg_help_product_4 .st77{fill:none;stroke:#000000;stroke-width:3;stroke-linecap:round;stroke-linejoin:round;stroke-dasharray:12.0674,8.0449;} #svg_help_product_4 .st78{fill:none;stroke:#000000;stroke-width:3;stroke-linecap:round;stroke-linejoin:round;stroke-dasharray:10.4196,6.9464;} #svg_help_product_4 .st79{fill:none;stroke:#000000;stroke-width:3;stroke-linecap:round;stroke-linejoin:round;stroke-dasharray:12.5054,8.3369;} #svg_help_product_4 .st80{fill:none;stroke:#000000;stroke-width:3;stroke-linecap:round;stroke-linejoin:round;stroke-dasharray:11.5784,7.7189;}
  </style>
  <path class="st0" d="M0 0h350v416.5H0z"/>
  <path class="st26" d="M70.2 232.8c-5.2 0-9.5-4.2-9.6-9.5v-.1c0-5.7 4.6-10.4 10.3-10.4 1.4 0 2.8.3 4 .8 2.6-3.3 6.7-5.4 11.3-5.4 6.4 0 11.7 4.1 13.7 9.9 1.1-.6 2.4-.9 3.8-.9 4.5 0 8.2 3.7 8.2 8.3 0 4-3.3 7.3-7.4 7.3H70.2z"/>
  <path class="st1" d="M54.8 247.1c-2.6 0-4.8-2.1-4.8-4.7 0-2.9 2.3-5.2 5.2-5.2.7 0 1.4.1 2 .4 1.3-1.7 3.4-2.7 5.6-2.7 3.2 0 5.9 2.1 6.8 4.9.6-.3 1.2-.5 1.9-.5 2.3 0 4.1 1.9 4.1 4.1 0 2-1.7 3.7-3.7 3.7H54.8z"/>
  <path class="st26" d="M295.2 266c2.8 0 5-2.2 5-5 0-3-2.4-5.5-5.4-5.5-.7 0-1.5.2-2.1.4-1.4-1.7-3.5-2.9-5.9-2.9-3.3 0-6.2 2.2-7.2 5.2-.6-.3-1.3-.5-2-.5-2.4 0-4.3 1.9-4.3 4.3 0 2.1 1.7 3.8 3.9 3.8h18z"/>
  <path class="st1" d="M258.4 249.1c-3.7 0-6.7-3-6.7-6.7 0-4 3.2-7.3 7.2-7.3 1 0 1.9.2 2.8.6 1.9-2.3 4.7-3.8 7.9-3.8 4.5 0 8.3 2.9 9.6 6.9.8-.4 1.7-.7 2.7-.7 3.2 0 5.8 2.6 5.8 5.8 0 2.8-2.3 5.1-5.2 5.1h-24.1z"/>
  <path class="st27" d="M76 256.1H47.6M41 256.1h-5.7M42 256.1H21.8M306 222.5h-38.4M261 222.5h-5.6M246.5 222.5h-20.1M68.6 265.5H35.3M274.1 213.9h-33.4"/>
  <g>
    <path class="st1" d="M62.6 91.1c-11.1 0-20.2 9.1-20.2 20.2 0 10.4 8 19.1 18.2 20.1-1.7 2.9-2.7 6.3-2.7 10 0 11.1 9.1 20.2 20.2 20.2 1.1 0 2.2-.1 3.3-.3-.4 1.6-.6 3.2-.6 4.9 0 11.1 9.1 20.2 20.2 20.2 3.3 0 6.4-.8 9.2-2.2.7 10.5 9.5 18.8 20.1 18.8 4.9 0 9.4-1.8 12.9-4.7 2.4 8.5 10.2 14.8 19.4 14.8 7 0 13.2-3.6 16.8-9.1 3.6 5.7 9.9 9.4 17 9.4 9.3 0 17.2-6.4 19.5-15 3.5 2.8 7.9 4.6 12.7 4.6 10.7 0 19.4-8.4 20.1-18.9 2.8 1.5 6 2.3 9.3 2.3 11.1 0 20.2-9.1 20.2-20.2 0-1.7-.2-3.3-.6-4.9 1.1.2 2.2.3 3.3.3 11.1 0 20.2-9.1 20.2-20.2 0-3.6-1-7-2.7-10 10.1-1.1 18-9.7 18-20 0-11.1-9.1-20.2-20.2-20.2s-20.2 9.1-20.2 20.2c0 3.6 1 7 2.7 10-10.1 1.1-18 9.7-18 20 0 1.7.2 3.3.6 4.9-1.1-.2-2.2-.3-3.3-.3-10.7 0-19.4 8.4-20.1 18.9-2.8-1.5-6-2.3-9.3-2.3-9.3 0-17.2 6.4-19.5 15-3.5-2.8-7.9-4.6-12.7-4.6-7 0-13.2 3.6-16.8 9.1-3.6-5.7-9.9-9.4-17-9.4-4.9 0-9.4 1.8-12.9 4.7-2.4-8.5-10.2-14.8-19.4-14.8-3.3 0-6.4.8-9.2 2.2-.7-10.5-9.5-18.8-20.1-18.8-1.1 0-2.2.1-3.3.3.4-1.6.6-3.2.6-4.9 0-10.4-8-19.1-18.2-20.1 1.7-2.9 2.7-6.3 2.7-10-.1-11.2-9.1-20.2-20.2-20.2zM161.2 225.3c-.8 0-1.8.4-2.4 1L139 246.2c-.5.5-.6 1.5-.2 2.1l39.3 58.9c.4.6 1.1.6 1.5 0l39.3-58.9c.4-.6.3-1.6-.2-2.1l-19.9-20c-.5-.5-1.6-1-2.4-1h-35.2z"/>
    <path class="st21" d="M46.9 129.8c1.8.8 3.8 1.3 5.8 1.5-1 1.7-1.7 3.6-2.2 5.6"/>
    <path class="st38" d="M50.7 146.3c1.6 6.3 6.3 11.4 12.2 13.7"/>
    <path class="st21" d="M67.6 161.2c.9.1 1.7.2 2.6.2 1.1 0 2.2-.1 3.3-.3-.4 1.6-.6 3.2-.6 4.9v1"/>
    <path class="st39" d="M75.8 176.3c3.3 5.5 9.2 9.4 16 9.8"/>
    <path class="st21" d="M96.7 185.9c2-.4 3.9-1 5.7-1.9.1 2 .6 4 1.3 5.8"/>
    <path class="st40" d="M108.7 197.4c3.6 3.3 8.4 5.4 13.7 5.4 1.1 0 2.3-.1 3.4-.3"/>
    <path class="st21" d="M130.2 201.2c1.9-.8 3.6-1.8 5.1-3.1.5 2 1.4 3.8 2.4 5.5"/>
    <path class="st41" d="M144.7 210.2c2.9 1.7 6.3 2.7 10 2.7 3.1 0 6.1-.7 8.7-2"/>
    <path class="st21" d="M167.5 208.2c1.5-1.3 2.9-2.8 4-4.4 1.1 1.7 2.4 3.2 3.9 4.5"/>
    <path class="st42" d="M184.2 212.7c1.4.3 2.9.5 4.4.5 5.4 0 10.3-2.2 14-5.6"/>
    <path class="st21" d="M205.6 203.7c1.1-1.7 1.9-3.5 2.4-5.5 1.5 1.3 3.3 2.3 5.1 3.1"/>
    <path class="st43" d="M222.2 202.7c6.4-.4 12-3.9 15.3-8.9"/>
    <path class="st21" d="M239.6 189.7c.7-1.8 1.1-3.8 1.3-5.8 1.8.9 3.6 1.6 5.7 2"/>
    <path class="st44" d="M256.2 185.3c6.3-2 11.3-7 13.3-13.4"/>
    <path class="st21" d="M270.3 167.1v-1c0-1.7-.2-3.3-.6-4.9 1.1.2 2.2.3 3.3.3.9 0 1.8-.1 2.6-.2"/>
    <path class="st45" d="M284.5 157.8c5.2-3.6 8.6-9.5 8.7-16.2"/>
    <path class="st21" d="M292.7 136.8c-.4-2-1.2-3.9-2.2-5.6 2-.2 4-.7 5.8-1.5"/>
    <path class="st46" d="M303.1 125c3.4-3.6 5.5-8.5 5.5-13.8 0-11.1-9.1-20.2-20.2-20.2s-20.2 9.1-20.2 20.2v.3"/>
    <path class="st21" d="M268.7 115.6c.4 2 1.2 3.9 2.2 5.6-2 .2-4 .7-5.8 1.5"/>
    <path class="st47" d="M259.7 126.1c-3.2 2.8-5.5 6.6-6.4 10.9"/>
    <path class="st21" d="M252.9 140.2v1c0 1.7.2 3.3.6 4.9-1.1-.2-2.2-.3-3.3-.3-.9 0-1.8.1-2.6.2"/>
    <path class="st48" d="M241.6 147.8c-3.8 1.8-6.9 4.7-9 8.3"/>
    <path class="st21" d="M231.3 158.9c-.7 1.8-1.1 3.8-1.3 5.8-1.8-.9-3.6-1.6-5.7-2"/>
    <path class="st49" d="M217.6 162.7c-4.7.7-8.8 3.1-11.8 6.5"/>
    <path class="st21" d="M203.7 171.9c-1.1 1.7-1.9 3.5-2.4 5.5-1.5-1.3-3.3-2.3-5.1-3.1"/>
    <path class="st50" d="M190.2 172.9c-.5 0-1.1-.1-1.6-.1-3.8 0-7.3 1-10.3 2.8"/>
    <path class="st21" d="M175.7 177.5c-1.5 1.3-2.9 2.8-4 4.4-1.1-1.7-2.4-3.2-3.9-4.5"/>
    <path class="st51" d="M162.5 174.1c-2.4-1-5-1.6-7.7-1.6-1.6 0-3.2.2-4.7.6"/>
    <path class="st21" d="M146.9 174.1c-1.9.8-3.6 1.8-5.1 3.1-.5-2-1.4-3.8-2.4-5.5"/>
    <path class="st52" d="M134.8 166.8c-3.4-2.7-7.7-4.3-12.4-4.3h-.2"/>
    <path class="st21" d="M118.9 162.8c-2 .4-3.9 1-5.7 1.9-.1-2-.6-4-1.3-5.8"/>
    <path class="st53" d="M108.9 153.5c-2.6-3.2-6.1-5.6-10.1-6.8"/>
    <path class="st21" d="M95.8 146.1c-.9-.1-1.8-.2-2.6-.2-1.1 0-2.2.1-3.3.3.4-1.6.6-3.2.6-4.9v-1"/>
    <path class="st54" d="M89 133.9c-1.6-4.1-4.5-7.5-8.2-9.8"/>
    <path class="st21" d="M78 122.6c-1.8-.8-3.8-1.3-5.8-1.5 1-1.7 1.7-3.6 2.2-5.6"/>
    <path class="st55" d="M74.4 107.4c-1.8-9.3-10-16.3-19.8-16.3-11.1 0-20.2 9.1-20.2 20.2 0 6.9 3.5 13 8.8 16.6"/>
    <g>
      <path class="st56" d="M154.7 225.3c-.8 0-1.8.4-2.4 1l-19.9 19.9c-.5.5-.6 1.5-.2 2.1l39.3 58.9c.4.6 1.1.6 1.5 0l39.3-58.9c.4-.6.3-1.6-.2-2.1l-19.9-20c-.5-.5-1.6-1-2.4-1h-35.1z"/>
    </g>
  </g>
  <path class="st25" d="M171.5 301.1v-46.5M155.8 231.8l13.6 15.3M139.2 249.1H164M187.2 231.8l-13.5 15.3M203.8 249.1H179"/>
</svg>
