<svg id="svg_help_product_7" xmlns="http://www.w3.org/2000/svg" viewBox="0 0 350 416.5">
  <style>
    #svg_help_product_7 .st0{fill:#F2F2F2;} #svg_help_product_7 .st1{fill:#D7EDFF;} #svg_help_product_7 .st2{fill:#BC1200;} #svg_help_product_7 .st3{fill:#00E582;stroke:#000000;stroke-width:2;stroke-miterlimit:10;} #svg_help_product_7 .st4{fill:#6C6C6C;} #svg_help_product_7 .st5{fill:#00E582;} #svg_help_product_7 .st6{stroke:#000000;stroke-width:3;stroke-miterlimit:10;} #svg_help_product_7 .st7{fill:#AFAFAF;} #svg_help_product_7 .st8{fill:#DBCCA9;stroke:#000000;stroke-width:3;stroke-miterlimit:10;} #svg_help_product_7 .st9{fill:#E42320;} #svg_help_product_7 .st10{fill:#FFFFFF;} #svg_help_product_7 .st11{fill:#FFE400;} #svg_help_product_7 .st12{fill:#0080FF;} #svg_help_product_7 .st13{fill:#0067BC;} #svg_help_product_7 .st14{fill:#FFA100;} #svg_help_product_7 .st15{stroke:#000000;stroke-width:2;stroke-miterlimit:10;} #svg_help_product_7 .st16{fill:#444444;stroke:#000000;stroke-width:2;stroke-miterlimit:10;} #svg_help_product_7 .st17{fill:#C1003C;} #svg_help_product_7 .st18{fill:#FC004E;} #svg_help_product_7 .st19{fill:#8B00BF;} #svg_help_product_7 .st20{fill:#A100FF;} #svg_help_product_7 .st21{fill:none;stroke:#000000;stroke-width:3;stroke-linecap:round;stroke-linejoin:round;} #svg_help_product_7 .st22{fill:none;stroke:#000000;stroke-width:3;stroke-linecap:round;stroke-linejoin:round;stroke-dasharray:14.1826,9.4551;} #svg_help_product_7 .st23{fill:none;stroke:#000000;stroke-width:3;stroke-linecap:round;stroke-linejoin:round;stroke-dasharray:14.175,9.45;} #svg_help_product_7 .st24{fill:none;stroke:#000000;stroke-width:3;stroke-linecap:round;stroke-linejoin:round;stroke-dasharray:12.0832,8.0555;} #svg_help_product_7 .st25{fill:none;stroke:#000000;stroke-width:3;stroke-linecap:round;stroke-linejoin:round;stroke-miterlimit:10;stroke-dasharray:12,8;} #svg_help_product_7 .st26{fill:#E5E5E5;} #svg_help_product_7 .st27{fill:none;stroke:#E5E5E5;stroke-width:3;stroke-linecap:round;stroke-linejoin:round;stroke-miterlimit:10;} #svg_help_product_7 .st28{fill:#1D1E1C;} #svg_help_product_7 .st29{fill:#0093C6;} #svg_help_product_7 .st30{fill:url(#SVGID_1_);} #svg_help_product_7 .st31{fill:url(#SVGID_2_);} #svg_help_product_7 .st32{fill:#6DFCB5;} #svg_help_product_7 .st33{fill:none;stroke:#000000;stroke-width:3;stroke-miterlimit:10;} #svg_help_product_7 .st34{fill:#E0D500;} #svg_help_product_7 .st35{fill:none;stroke:#000000;stroke-width:3;stroke-linecap:round;stroke-linejoin:round;stroke-miterlimit:10;} #svg_help_product_7 .st36{opacity:0.25;} #svg_help_product_7 .st37{fill:none;stroke:#000000;stroke-width:2;stroke-miterlimit:10;} #svg_help_product_7 .st38{fill:none;stroke:#000000;stroke-width:3;stroke-linecap:round;stroke-linejoin:round;stroke-dasharray:14.3163,9.5442;} #svg_help_product_7 .st39{fill:none;stroke:#000000;stroke-width:3;stroke-linecap:round;stroke-linejoin:round;stroke-dasharray:14.636,9.7574;} #svg_help_product_7 .st40{fill:none;stroke:#000000;stroke-width:3;stroke-linecap:round;stroke-linejoin:round;stroke-dasharray:13.8351,9.2234;} #svg_help_product_7 .st41{fill:none;stroke:#000000;stroke-width:3;stroke-linecap:round;stroke-linejoin:round;stroke-dasharray:14.6007,9.7338;} #svg_help_product_7 .st42{fill:none;stroke:#000000;stroke-width:3;stroke-linecap:round;stroke-linejoin:round;stroke-dasharray:14.8718,9.9145;} #svg_help_product_7 .st43{fill:none;stroke:#000000;stroke-width:3;stroke-linecap:round;stroke-linejoin:round;stroke-dasharray:13.7735,9.1823;} #svg_help_product_7 .st44{fill:none;stroke:#000000;stroke-width:3;stroke-linecap:round;stroke-linejoin:round;stroke-dasharray:14.6853,9.7902;} #svg_help_product_7 .st45{fill:none;stroke:#000000;stroke-width:3;stroke-linecap:round;stroke-linejoin:round;stroke-dasharray:14.3237,9.5491;} #svg_help_product_7 .st46{fill:none;stroke:#000000;stroke-width:3;stroke-linecap:round;stroke-linejoin:round;stroke-dasharray:12.437,8.2913;} #svg_help_product_7 .st47{fill:none;stroke:#000000;stroke-width:3;stroke-linecap:round;stroke-linejoin:round;stroke-dasharray:9.6266,6.4178;} #svg_help_product_7 .st48{fill:none;stroke:#000000;stroke-width:3;stroke-linecap:round;stroke-linejoin:round;stroke-dasharray:9.2976,6.1984;} #svg_help_product_7 .st49{fill:none;stroke:#000000;stroke-width:3;stroke-linecap:round;stroke-linejoin:round;stroke-dasharray:10.3174,6.8783;} #svg_help_product_7 .st50{fill:none;stroke:#000000;stroke-width:3;stroke-linecap:round;stroke-linejoin:round;stroke-dasharray:9.2943,6.1962;} #svg_help_product_7 .st51{fill:none;stroke:#000000;stroke-width:3;stroke-linecap:round;stroke-linejoin:round;stroke-dasharray:9.552,6.368;} #svg_help_product_7 .st52{fill:none;stroke:#000000;stroke-width:3;stroke-linecap:round;stroke-linejoin:round;stroke-dasharray:10.171,6.7807;} #svg_help_product_7 .st53{fill:none;stroke:#000000;stroke-width:3;stroke-linecap:round;stroke-linejoin:round;stroke-dasharray:9.2766,6.1844;} #svg_help_product_7 .st54{fill:none;stroke:#000000;stroke-width:3;stroke-linecap:round;stroke-linejoin:round;stroke-dasharray:9.7099,6.4732;} #svg_help_product_7 .st55{fill:none;stroke:#000000;stroke-width:3;stroke-linecap:round;stroke-linejoin:round;stroke-dasharray:12.4608,8.3072;} #svg_help_product_7 .st56{fill:none;stroke:#000000;stroke-width:3;stroke-linecap:round;stroke-linejoin:round;stroke-dasharray:12.2348,8.1565;} #svg_help_product_7 .st57{fill:none;stroke:#000000;stroke-width:2.6091;stroke-linecap:round;stroke-linejoin:round;} #svg_help_product_7 .st58{fill:none;stroke:#000000;stroke-width:2.6091;stroke-linecap:round;stroke-linejoin:round;stroke-dasharray:10.4621,6.9747;} #svg_help_product_7 .st59{fill:none;stroke:#000000;stroke-width:2.6091;stroke-linecap:round;stroke-linejoin:round;stroke-dasharray:10.2553,6.8369;} #svg_help_product_7 .st60{fill:none;stroke:#000000;stroke-width:2.6091;stroke-linecap:round;stroke-linejoin:round;stroke-dasharray:11.5547,7.7031;} #svg_help_product_7 .st61{fill:none;stroke:#000000;stroke-width:2.6091;stroke-linecap:round;stroke-linejoin:round;stroke-miterlimit:10;stroke-dasharray:10.4365,6.9577;} #svg_help_product_7 .st62{fill:none;stroke:#000000;stroke-width:2.609;stroke-linecap:round;stroke-linejoin:round;} #svg_help_product_7 .st63{fill:none;stroke:#000000;stroke-width:2.609;stroke-linecap:round;stroke-linejoin:round;stroke-dasharray:10.4419,6.9613;} #svg_help_product_7 .st64{fill:none;stroke:#000000;stroke-width:2.609;stroke-linecap:round;stroke-linejoin:round;stroke-dasharray:10.6959,7.1306;} #svg_help_product_7 .st65{fill:none;stroke:#000000;stroke-width:2.609;stroke-linecap:round;stroke-linejoin:round;stroke-dasharray:11.235,7.49;} #svg_help_product_7 .st66{fill:none;stroke:#000000;stroke-width:2.609;stroke-linecap:round;stroke-linejoin:round;stroke-dasharray:10.6932,7.1288;} #svg_help_product_7 .st67{fill:none;stroke:#000000;stroke-width:2.609;stroke-linecap:round;stroke-linejoin:round;stroke-dasharray:10.3839,6.9226;} #svg_help_product_7 .st68{fill:none;stroke:#000000;stroke-width:2.609;stroke-linecap:round;stroke-linejoin:round;stroke-dasharray:10.7085,7.139;} #svg_help_product_7 .st69{fill:none;stroke:#000000;stroke-width:2.609;stroke-linecap:round;stroke-linejoin:round;stroke-dasharray:10.4372,6.9581;} #svg_help_product_7 .st70{fill:none;stroke:#000000;stroke-width:2.609;stroke-linecap:round;stroke-linejoin:round;stroke-dasharray:10.4655,6.977;} #svg_help_product_7 .st71{fill:none;stroke:#000000;stroke-width:2.609;stroke-linecap:round;stroke-linejoin:round;stroke-dasharray:10.1171,6.7447;} #svg_help_product_7 .st72{fill:none;stroke:#000000;stroke-width:2.609;stroke-linecap:round;stroke-linejoin:round;stroke-miterlimit:10;stroke-dasharray:10.4365,6.9577;} #svg_help_product_7 .st73{fill:none;stroke:#000000;stroke-width:2.3394;stroke-linecap:round;stroke-linejoin:round;stroke-miterlimit:10;stroke-dasharray:9.3577,6.2385;} #svg_help_product_7 .st74{fill:none;stroke:#000000;stroke-width:3;stroke-linecap:round;stroke-linejoin:round;stroke-dasharray:13.9844,9.3229;} #svg_help_product_7 .st75{fill:none;stroke:#000000;stroke-width:3;stroke-linecap:round;stroke-linejoin:round;stroke-dasharray:11.8721,7.9147;} #svg_help_product_7 .st76{fill:none;stroke:#000000;stroke-width:3;stroke-linecap:round;stroke-linejoin:round;stroke-dasharray:11.8454,7.8969;} #svg_help_product_7 .st77{fill:none;stroke:#000000;stroke-width:3;stroke-linecap:round;stroke-linejoin:round;stroke-dasharray:12.0674,8.0449;} #svg_help_product_7 .st78{fill:none;stroke:#000000;stroke-width:3;stroke-linecap:round;stroke-linejoin:round;stroke-dasharray:10.4196,6.9464;} #svg_help_product_7 .st79{fill:none;stroke:#000000;stroke-width:3;stroke-linecap:round;stroke-linejoin:round;stroke-dasharray:12.5054,8.3369;} #svg_help_product_7 .st80{fill:none;stroke:#000000;stroke-width:3;stroke-linecap:round;stroke-linejoin:round;stroke-dasharray:11.5784,7.7189;}
  </style>
  <path class="st0" d="M0 0h350v416.5H0z"/>
  <path class="st26" d="M75.6 90.6c-5.2 0-9.5-4.2-9.6-9.5V81c0-5.7 4.6-10.4 10.3-10.4 1.4 0 2.8.3 4 .8C83 68.1 87.1 66 91.7 66c6.4 0 11.7 4.1 13.7 9.9 1.1-.6 2.4-.9 3.8-.9 4.5 0 8.2 3.7 8.2 8.3 0 4-3.3 7.3-7.4 7.3H75.6z"/>
  <path class="st1" d="M52.2 102.9c-2.6 0-4.8-2.1-4.8-4.7 0-2.9 2.3-5.2 5.2-5.2.7 0 1.4.1 2 .4 1.3-1.7 3.4-2.7 5.6-2.7 3.2 0 5.9 2.1 6.8 4.9.6-.3 1.2-.5 1.9-.5 2.3 0 4.1 1.9 4.1 4.1 0 2-1.7 3.7-3.7 3.7H52.2z"/>
  <path class="st26" d="M309.4 129.7c2.8 0 5-2.2 5-5 0-3-2.4-5.5-5.4-5.5-.7 0-1.5.2-2.1.4-1.4-1.7-3.5-2.9-5.9-2.9-3.3 0-6.2 2.2-7.2 5.2-.6-.3-1.3-.5-2-.5-2.4 0-4.3 1.9-4.3 4.3 0 2.1 1.7 3.8 3.9 3.8h18z"/>
  <path class="st1" d="M271.6 112.8c-3.7 0-6.7-3-6.7-6.7 0-4 3.2-7.3 7.2-7.3 1 0 1.9.2 2.8.6 1.9-2.3 4.7-3.8 7.9-3.8 4.5 0 8.3 2.9 9.6 6.9.8-.4 1.7-.7 2.7-.7 3.2 0 5.8 2.6 5.8 5.8 0 2.8-2.3 5.1-5.2 5.1h-24.1z"/>
  <path class="st27" d="M81.4 111.8H48M41.4 111.8h-5.7M26.9 111.8H13.7M337.3 83.3h-50.4M280.2 83.3h-5.6M265.8 83.3h-29.2M69 121.3H35.7M293.3 74.7h-33.4"/>
  <g>
    <path class="st1" d="M179.1 288.4c-10.4-11.9-20.4-26.6-27.6-41.7-6.6-13.9-11-28.1-11.5-41.1-.6-13.9 3.3-26.2 13.3-35.1 2.8-2.5 6.2-4.7 10-6.6 1.6-.8 10.3-4.8 21.9-7.8l1.1-.3V148h-.8c-3.7 0-7.1-1.5-9.5-4-2.4-2.5-4-5.8-4-9.5v-12.3c0-3.7 1.5-7.1 4-9.6 2.4-2.4 5.8-4 9.5-4h14.2c-2.4-1.2-4.5-3-6.3-5.3-2.2-2.9-3.7-6.4-4.4-10.4-49.1 3-80.5 34.3-93.1 72.7-5.3 16-7.4 33.4-6.2 50.4 1.2 16.9 5.7 33.5 13.5 48.2 17.6 33.1 52.4 64.7 105.1 60.8 1.4-6.4 5.2-12 10.5-16.3 6.5-5.3 15.5-8.6 25.3-8.6s18.7 3.3 25.2 8.6c6.9 5.6 11.2 13.4 11.2 22.2 0 8.7-4.3 16.6-11.2 22.2-6.5 5.3-15.5 8.6-25.3 8.6s-18.8-3.3-25.3-8.6c-5-4.1-8.7-9.3-10.3-15.3-58.2 4.2-96.9-30.4-116.7-67.6-8.7-16.3-13.6-34.6-14.9-53.3-1.3-18.6 1-37.6 6.8-55.3 14.4-43.4 50-78.8 106.1-81.6h.4c.8-2.3 1.9-4.3 3.3-6.1 3.3-4.3 8.1-7 13.4-7 5.3 0 10.1 2.7 13.4 7 2.9 3.8 4.8 9.1 4.8 14.7 0 5.7-1.8 10.9-4.8 14.7-1.7 2.3-3.9 4.1-6.3 5.3h14.2c3.7 0 7 1.5 9.5 4 2.4 2.4 4 5.8 4 9.5v12.3c0 3.7-1.5 7.1-4 9.6-.2.1-.3.3-.5.4-2.4 2.2-5.6 3.5-9 3.5h-.8v7.9l1.1.3c11.6 3 20.3 7 21.9 7.8 3.9 1.8 7.2 4 10 6.6 10 8.9 13.8 21.2 13.3 35.1-.5 12.9-4.9 27.2-11.5 41.1-7.3 15.3-17.4 30.2-28 42.2-1.3 1.4-3 2.2-4.8 2.2h-45c-2.1 0-4-1.1-5.2-2.7z"/>
    <path class="st62" d="M174.2 157.2c1.3-.4 2.6-.7 4-1.1l1.1-.3V148h-.8c-1.5 0-3-.3-4.4-.7"/>
    <path class="st63" d="M168.4 143.4c-2.1-2.4-3.4-5.5-3.4-8.9v-12.3c0-3.7 1.5-7.1 4-9.6 2.4-2.4 5.8-4 9.5-4h5.5"/>
    <path class="st62" d="M187.5 108.7h5.2c-1.5-.8-3-1.8-4.2-3M183.4 97.9c-.6-1.6-1.1-3.3-1.4-5-1.8.1-3.5.2-5.2.4"/>
    <path class="st64" d="M169.8 94.3c-42.1 7-69.3 36.3-80.9 71.3-5.3 16-7.4 33.4-6.2 50.4 1.2 16.9 5.7 33.5 13.5 48.2 16.6 31.3 48.5 61.1 96.3 61.1"/>
    <path class="st62" d="M196 325.2c1.7-.1 3.5-.1 5.2-.3.4-1.7.9-3.4 1.6-4.9"/>
    <path class="st65" d="M206.8 313.6c1.4-1.8 3.1-3.5 5-5 6.5-5.3 15.5-8.6 25.3-8.6 6.4 0 12.4 1.4 17.7 3.8"/>
    <path class="st62" d="M258 305.7c1.5.9 3 1.9 4.3 3 1.4 1.1 2.6 2.3 3.8 3.6"/>
    <path class="st66" d="M270.2 318.1c2.1 3.9 3.3 8.2 3.3 12.8 0 8.7-4.3 16.6-11.2 22.2-6.5 5.3-15.5 8.6-25.3 8.6s-18.8-3.3-25.3-8.6c-2.6-2.1-4.9-4.6-6.7-7.3"/>
    <path class="st62" d="M203.3 342.7c-.8-1.6-1.4-3.2-1.8-4.9-1.8.1-3.5.2-5.2.3"/>
    <path class="st67" d="M189.4 338.1c-51.5-1.1-86.2-33.3-104.5-67.9-8.7-16.3-13.6-34.6-14.9-53.3-1.3-18.6 1-37.6 6.8-55.3 13.7-41.2 46.5-75.2 97.8-80.9"/>
    <path class="st62" d="M178 80.3l4.8-.3h.4c.8-2.3 1.9-4.3 3.3-6.1 1.1-1.4 2.3-2.7 3.7-3.7"/>
    <path class="st68" d="M196.5 67.2c1.1-.2 2.2-.3 3.3-.3 5.3 0 10.1 2.7 13.4 7 2.9 3.8 4.8 9.1 4.8 14.7 0 5.5-1.7 10.5-4.5 14.3"/>
    <path class="st62" d="M211.2 105.6c-1.3 1.2-2.7 2.3-4.2 3h5.2"/>
    <path class="st69" d="M219.1 108.7h2c3.7 0 7 1.5 9.5 4 2.4 2.4 4 5.8 4 9.5v12.3c0 3.7-1.5 7.1-4 9.6-.2.1-.3.3-.5.4-.5.4-1 .9-1.6 1.2"/>
    <path class="st62" d="M225.6 147.2c-1.4.5-2.8.7-4.4.7h-.8v7.9l1.1.3c1.4.4 2.7.7 4 1.1"/>
    <path class="st70" d="M232.1 159.4c6.1 2.1 10.2 4.1 11.3 4.6 3.9 1.8 7.2 4 10 6.6 10 8.9 13.8 21.2 13.3 35.1-.5 12.9-4.9 27.2-11.5 41.1-6.8 14.3-16 28.1-25.8 39.7"/>
    <path class="st62" d="M227 289c-1.3 1.3-3 2-4.7 2h-5.2"/>
    <path class="st71" d="M210.4 291.1h-33.1c-2.1 0-4-1-5.2-2.6-10.4-11.9-20.4-26.6-27.6-41.7-6.6-13.9-11-28.1-11.5-41.1-.6-13.9 3.3-26.2 13.3-35.1 2.8-2.5 6.2-4.7 10-6.6 1.2-.6 6.8-3.2 14.7-5.7"/>
    <path class="st72" d="M169.1 262.2c-5.2-7.8-8.3-15.7-13-24.6-4.4-8.3-6.7-16.9-8.2-25.2"/>
  </g>
</svg>
