<svg id="svg_help_product_1" xmlns="http://www.w3.org/2000/svg" viewBox="0 0 350 416.5">
  <style>
    #svg_help_product_1 .st0{fill:#F2F2F2;} #svg_help_product_1 .st1{fill:#D7EDFF;} #svg_help_product_1 .st2{fill:#BC1200;} #svg_help_product_1 .st3{fill:#00E582;stroke:#000000;stroke-width:2;stroke-miterlimit:10;} #svg_help_product_1 .st4{fill:#6C6C6C;} #svg_help_product_1 .st5{fill:#00E582;} #svg_help_product_1 .st6{stroke:#000000;stroke-width:3;stroke-miterlimit:10;} #svg_help_product_1 .st7{fill:#AFAFAF;} #svg_help_product_1 .st8{fill:#DBCCA9;stroke:#000000;stroke-width:3;stroke-miterlimit:10;} #svg_help_product_1 .st9{fill:#E42320;} #svg_help_product_1 .st10{fill:#FFFFFF;} #svg_help_product_1 .st11{fill:#FFE400;} #svg_help_product_1 .st12{fill:#0080FF;} #svg_help_product_1 .st13{fill:#0067BC;} #svg_help_product_1 .st14{fill:#FFA100;} #svg_help_product_1 .st15{stroke:#000000;stroke-width:2;stroke-miterlimit:10;} #svg_help_product_1 .st16{fill:#444444;stroke:#000000;stroke-width:2;stroke-miterlimit:10;} #svg_help_product_1 .st17{fill:#C1003C;} #svg_help_product_1 .st18{fill:#FC004E;} #svg_help_product_1 .st19{fill:#8B00BF;} #svg_help_product_1 .st20{fill:#A100FF;} #svg_help_product_1 .st21{fill:none;stroke:#000000;stroke-width:3;stroke-linecap:round;stroke-linejoin:round;} #svg_help_product_1 .st22{fill:none;stroke:#000000;stroke-width:3;stroke-linecap:round;stroke-linejoin:round;stroke-dasharray:14.1826,9.4551;} #svg_help_product_1 .st23{fill:none;stroke:#000000;stroke-width:3;stroke-linecap:round;stroke-linejoin:round;stroke-dasharray:14.175,9.45;} #svg_help_product_1 .st24{fill:none;stroke:#000000;stroke-width:3;stroke-linecap:round;stroke-linejoin:round;stroke-dasharray:12.0832,8.0555;} #svg_help_product_1 .st25{fill:none;stroke:#000000;stroke-width:3;stroke-linecap:round;stroke-linejoin:round;stroke-miterlimit:10;stroke-dasharray:12,8;} #svg_help_product_1 .st26{fill:#E5E5E5;} #svg_help_product_1 .st27{fill:none;stroke:#E5E5E5;stroke-width:3;stroke-linecap:round;stroke-linejoin:round;stroke-miterlimit:10;} #svg_help_product_1 .st28{fill:#1D1E1C;} #svg_help_product_1 .st29{fill:#0093C6;} #svg_help_product_1 .st30{fill:url(#SVGID_1_);} #svg_help_product_1 .st31{fill:url(#SVGID_2_);} #svg_help_product_1 .st32{fill:#6DFCB5;} #svg_help_product_1 .st33{fill:none;stroke:#000000;stroke-width:3;stroke-miterlimit:10;} #svg_help_product_1 .st34{fill:#E0D500;} #svg_help_product_1 .st35{fill:none;stroke:#000000;stroke-width:3;stroke-linecap:round;stroke-linejoin:round;stroke-miterlimit:10;} #svg_help_product_1 .st36{opacity:0.25;} #svg_help_product_1 .st37{fill:none;stroke:#000000;stroke-width:2;stroke-miterlimit:10;} #svg_help_product_1 .st38{fill:none;stroke:#000000;stroke-width:3;stroke-linecap:round;stroke-linejoin:round;stroke-dasharray:14.3163,9.5442;} #svg_help_product_1 .st39{fill:none;stroke:#000000;stroke-width:3;stroke-linecap:round;stroke-linejoin:round;stroke-dasharray:14.636,9.7574;} #svg_help_product_1 .st40{fill:none;stroke:#000000;stroke-width:3;stroke-linecap:round;stroke-linejoin:round;stroke-dasharray:13.8351,9.2234;} #svg_help_product_1 .st41{fill:none;stroke:#000000;stroke-width:3;stroke-linecap:round;stroke-linejoin:round;stroke-dasharray:14.6007,9.7338;} #svg_help_product_1 .st42{fill:none;stroke:#000000;stroke-width:3;stroke-linecap:round;stroke-linejoin:round;stroke-dasharray:14.8718,9.9145;} #svg_help_product_1 .st43{fill:none;stroke:#000000;stroke-width:3;stroke-linecap:round;stroke-linejoin:round;stroke-dasharray:13.7735,9.1823;} #svg_help_product_1 .st44{fill:none;stroke:#000000;stroke-width:3;stroke-linecap:round;stroke-linejoin:round;stroke-dasharray:14.6853,9.7902;} #svg_help_product_1 .st45{fill:none;stroke:#000000;stroke-width:3;stroke-linecap:round;stroke-linejoin:round;stroke-dasharray:14.3237,9.5491;} #svg_help_product_1 .st46{fill:none;stroke:#000000;stroke-width:3;stroke-linecap:round;stroke-linejoin:round;stroke-dasharray:12.437,8.2913;} #svg_help_product_1 .st47{fill:none;stroke:#000000;stroke-width:3;stroke-linecap:round;stroke-linejoin:round;stroke-dasharray:9.6266,6.4178;} #svg_help_product_1 .st48{fill:none;stroke:#000000;stroke-width:3;stroke-linecap:round;stroke-linejoin:round;stroke-dasharray:9.2976,6.1984;} #svg_help_product_1 .st49{fill:none;stroke:#000000;stroke-width:3;stroke-linecap:round;stroke-linejoin:round;stroke-dasharray:10.3174,6.8783;} #svg_help_product_1 .st50{fill:none;stroke:#000000;stroke-width:3;stroke-linecap:round;stroke-linejoin:round;stroke-dasharray:9.2943,6.1962;} #svg_help_product_1 .st51{fill:none;stroke:#000000;stroke-width:3;stroke-linecap:round;stroke-linejoin:round;stroke-dasharray:9.552,6.368;} #svg_help_product_1 .st52{fill:none;stroke:#000000;stroke-width:3;stroke-linecap:round;stroke-linejoin:round;stroke-dasharray:10.171,6.7807;} #svg_help_product_1 .st53{fill:none;stroke:#000000;stroke-width:3;stroke-linecap:round;stroke-linejoin:round;stroke-dasharray:9.2766,6.1844;} #svg_help_product_1 .st54{fill:none;stroke:#000000;stroke-width:3;stroke-linecap:round;stroke-linejoin:round;stroke-dasharray:9.7099,6.4732;} #svg_help_product_1 .st55{fill:none;stroke:#000000;stroke-width:3;stroke-linecap:round;stroke-linejoin:round;stroke-dasharray:12.4608,8.3072;} #svg_help_product_1 .st56{fill:none;stroke:#000000;stroke-width:3;stroke-linecap:round;stroke-linejoin:round;stroke-dasharray:12.2348,8.1565;} #svg_help_product_1 .st57{fill:none;stroke:#000000;stroke-width:2.6091;stroke-linecap:round;stroke-linejoin:round;} #svg_help_product_1 .st58{fill:none;stroke:#000000;stroke-width:2.6091;stroke-linecap:round;stroke-linejoin:round;stroke-dasharray:10.4621,6.9747;} #svg_help_product_1 .st59{fill:none;stroke:#000000;stroke-width:2.6091;stroke-linecap:round;stroke-linejoin:round;stroke-dasharray:10.2553,6.8369;} #svg_help_product_1 .st60{fill:none;stroke:#000000;stroke-width:2.6091;stroke-linecap:round;stroke-linejoin:round;stroke-dasharray:11.5547,7.7031;} #svg_help_product_1 .st61{fill:none;stroke:#000000;stroke-width:2.6091;stroke-linecap:round;stroke-linejoin:round;stroke-miterlimit:10;stroke-dasharray:10.4365,6.9577;} #svg_help_product_1 .st62{fill:none;stroke:#000000;stroke-width:2.609;stroke-linecap:round;stroke-linejoin:round;} #svg_help_product_1 .st63{fill:none;stroke:#000000;stroke-width:2.609;stroke-linecap:round;stroke-linejoin:round;stroke-dasharray:10.4419,6.9613;} #svg_help_product_1 .st64{fill:none;stroke:#000000;stroke-width:2.609;stroke-linecap:round;stroke-linejoin:round;stroke-dasharray:10.6959,7.1306;} #svg_help_product_1 .st65{fill:none;stroke:#000000;stroke-width:2.609;stroke-linecap:round;stroke-linejoin:round;stroke-dasharray:11.235,7.49;} #svg_help_product_1 .st66{fill:none;stroke:#000000;stroke-width:2.609;stroke-linecap:round;stroke-linejoin:round;stroke-dasharray:10.6932,7.1288;} #svg_help_product_1 .st67{fill:none;stroke:#000000;stroke-width:2.609;stroke-linecap:round;stroke-linejoin:round;stroke-dasharray:10.3839,6.9226;} #svg_help_product_1 .st68{fill:none;stroke:#000000;stroke-width:2.609;stroke-linecap:round;stroke-linejoin:round;stroke-dasharray:10.7085,7.139;} #svg_help_product_1 .st69{fill:none;stroke:#000000;stroke-width:2.609;stroke-linecap:round;stroke-linejoin:round;stroke-dasharray:10.4372,6.9581;} #svg_help_product_1 .st70{fill:none;stroke:#000000;stroke-width:2.609;stroke-linecap:round;stroke-linejoin:round;stroke-dasharray:10.4655,6.977;} #svg_help_product_1 .st71{fill:none;stroke:#000000;stroke-width:2.609;stroke-linecap:round;stroke-linejoin:round;stroke-dasharray:10.1171,6.7447;} #svg_help_product_1 .st72{fill:none;stroke:#000000;stroke-width:2.609;stroke-linecap:round;stroke-linejoin:round;stroke-miterlimit:10;stroke-dasharray:10.4365,6.9577;} #svg_help_product_1 .st73{fill:none;stroke:#000000;stroke-width:2.3394;stroke-linecap:round;stroke-linejoin:round;stroke-miterlimit:10;stroke-dasharray:9.3577,6.2385;} #svg_help_product_1 .st74{fill:none;stroke:#000000;stroke-width:3;stroke-linecap:round;stroke-linejoin:round;stroke-dasharray:13.9844,9.3229;} #svg_help_product_1 .st75{fill:none;stroke:#000000;stroke-width:3;stroke-linecap:round;stroke-linejoin:round;stroke-dasharray:11.8721,7.9147;} #svg_help_product_1 .st76{fill:none;stroke:#000000;stroke-width:3;stroke-linecap:round;stroke-linejoin:round;stroke-dasharray:11.8454,7.8969;} #svg_help_product_1 .st77{fill:none;stroke:#000000;stroke-width:3;stroke-linecap:round;stroke-linejoin:round;stroke-dasharray:12.0674,8.0449;} #svg_help_product_1 .st78{fill:none;stroke:#000000;stroke-width:3;stroke-linecap:round;stroke-linejoin:round;stroke-dasharray:10.4196,6.9464;} #svg_help_product_1 .st79{fill:none;stroke:#000000;stroke-width:3;stroke-linecap:round;stroke-linejoin:round;stroke-dasharray:12.5054,8.3369;} #svg_help_product_1 .st80{fill:none;stroke:#000000;stroke-width:3;stroke-linecap:round;stroke-linejoin:round;stroke-dasharray:11.5784,7.7189;}
  </style>
  <path class="st0" d="M0 0h350v416.5H0z"/>
  <path class="st1" d="M301.4 112.7H132.7c-8.6 0-17 5.9-20.6 14.1-3.4 7.9-11.2 13.5-20.4 13.5h-2.6c4.2-.4 7.6-3.9 7.6-8.3 0-4.6-3.7-8.3-8.3-8.3H71.9c-4.6 0-8.3 3.7-8.3 8.3s3.7 8.3 8.3 8.3h-8.3c-12.2 0-22.1 9.9-22.1 22.1v127.2c0 12.2 9.9 22.1 22.1 22.1h237.8c12.2 0 22.1-9.9 22.1-22.1V134.8c0-12.2-9.9-22.1-22.1-22.1z"/>
  <path class="st21" d="M86.2 140.1c-1.1.2-2.3.3-3.4.3h-2.6c2.1-.2 3.9-1.1 5.3-2.6"/>
  <path class="st74" d="M87.2 129.1c-1.2-3.1-4.2-5.3-7.7-5.3H62.9c-4.6 0-8.3 3.7-8.3 8.3 0 .8.1 1.6.3 2.3"/>
  <path class="st21" d="M57.4 138.3c1.5 1.3 3.4 2.1 5.5 2.1h-6"/>
  <path class="st75" d="M49 141.1c-9.5 2.5-16.6 11.1-16.6 21.4v127.2c0 12.2 9.9 22.1 22.1 22.1h237.8c12.2 0 22.1-9.9 22.1-22.1V134.8c0-12.2-9.9-22.1-22.1-22.1H123.7c-8.6 0-17 5.9-20.6 14.1-2.4 5.7-7.2 10.2-13.1 12.3"/>
  <path class="st76" d="M156.9 148.7h33.2c4.6 0 8.3-3.7 8.3-8.3s-3.7-8.3-8.3-8.3h-33.2c-4.6 0-8.3 3.7-8.3 8.3s3.7 8.3 8.3 8.3z"/>
  <path class="st77" d="M173.5 159.7c-33.6 0-60.8 27.2-60.8 60.8 0 33.6 27.2 60.8 60.8 60.8 33.6 0 60.8-27.2 60.8-60.8 0-33.5-27.2-60.8-60.8-60.8z"/>
  <g>
    <circle class="st78" cx="239.9" cy="151.4" r="8.3"/>
  </g>
  <g>
    <path class="st79" d="M275.8 134.8c-9.2 0-16.6 7.4-16.6 16.6 0 9.2 7.4 16.6 16.6 16.6 9.2 0 16.6-7.4 16.6-16.6 0-9.1-7.4-16.6-16.6-16.6z"/>
  </g>
  <g>
    <path class="st80" d="M173.5 192.9c-15.3 0-27.6 12.4-27.6 27.6 0 15.3 12.4 27.6 27.6 27.6 15.3 0 27.6-12.4 27.6-27.6 0-15.2-12.3-27.6-27.6-27.6z"/>
  </g>
  <path class="st25" d="M69.3 140.4h4.5"/>
  <g>
    <path class="st26" d="M63.5 68.5c-3.9 0-7.1-3.1-7.1-7 0-4.3 3.4-7.7 7.7-7.7 1.1 0 2.1.2 3 .6 2-2.5 5-4 8.4-4 4.7 0 8.7 3.1 10.2 7.3.8-.4 1.8-.7 2.8-.7 3.4 0 6.1 2.8 6.1 6.1 0 3-2.5 5.4-5.5 5.4H63.5zM191.2 358.3c3.4 0 6.2-2.8 6.2-6.2 0-3.8-3-6.8-6.7-6.8-.9 0-1.8.2-2.6.5-1.7-2.2-4.4-3.6-7.4-3.6-4.2 0-7.7 2.7-8.9 6.5-.7-.4-1.6-.6-2.5-.6-3 0-5.4 2.4-5.4 5.4 0 2.6 2.2 4.8 4.8 4.8h22.5z"/>
    <path class="st1" d="M47.5 84.8c-2.6 0-4.8-2.1-4.8-4.7 0-2.9 2.3-5.2 5.2-5.2.7 0 1.4.1 2 .4 1.3-1.7 3.4-2.7 5.6-2.7 3.2 0 5.9 2.1 6.8 4.9.6-.3 1.2-.5 1.9-.5 2.3 0 4.1 1.9 4.1 4.1 0 2-1.7 3.7-3.7 3.7H47.5zM295.1 77.1c-3.7 0-6.7-3-6.7-6.7 0-4 3.2-7.3 7.2-7.3 1 0 1.9.2 2.8.6 1.9-2.3 4.7-3.8 7.9-3.8 4.5 0 8.3 2.9 9.6 6.9.8-.4 1.7-.7 2.7-.7 3.2 0 5.8 2.6 5.8 5.8 0 2.8-2.3 5.1-5.2 5.1h-24.1z"/>
    <path class="st27" d="M95.2 93.8H40.4M33.8 93.8h-5.7M33.7 93.8H14.6M292 85h-60.4M224 85h-6.6M209.5 85h-68.4M87.7 103.2H28.1M237.1 76.3h-33.4M288.4 333H151.6M144 333h-6.7M129.5 333H95.3M180.6 324.3h-33.4M105.3 103.2H95.2M333.6 84.8h-33.4M177.6 93.8h-73.8M157.3 342.2h-33.4M115.2 342.2H53.4"/>
  </g>
</svg>
