<svg xmlns="http://www.w3.org/2000/svg" viewBox="0 0 1170 195"><style>.st0{fill:#D7EDFF;} .st1{fill:none;stroke:#000000;stroke-width:1.538;stroke-linecap:round;stroke-linejoin:round;stroke-miterlimit:10;stroke-dasharray:6.1521,4.1014;} .st2{fill:#FFFFFF;} .st3{fill:none;stroke:#000000;stroke-width:1.088;stroke-linecap:round;stroke-linejoin:round;} .st4{fill:none;stroke:#000000;stroke-width:1.088;stroke-linecap:round;stroke-linejoin:round;stroke-dasharray:4.3625,2.9083;} .st5{fill:none;stroke:#000000;stroke-width:1.088;stroke-linecap:round;stroke-linejoin:round;stroke-dasharray:4.2764,2.8509;} .st6{fill:none;stroke:#000000;stroke-width:1.088;stroke-linecap:round;stroke-linejoin:round;stroke-dasharray:4.8179,3.2119;} .st7{fill:none;stroke:#000000;stroke-width:1.0814;stroke-linecap:round;stroke-linejoin:round;} .st8{fill:none;stroke:#000000;stroke-width:1.0814;stroke-linecap:round;stroke-linejoin:round;stroke-dasharray:5.1092,3.4061;} .st9{fill:none;stroke:#000000;stroke-width:1.0814;stroke-linecap:round;stroke-linejoin:round;stroke-dasharray:5.1068,3.4045;} .st10{fill:none;stroke:#000000;stroke-width:1.0814;stroke-linecap:round;stroke-linejoin:round;stroke-dasharray:4.3552,2.9035;} .st11{fill:none;stroke:#000000;stroke-width:1.0814;stroke-linecap:round;stroke-linejoin:round;stroke-miterlimit:10;stroke-dasharray:4.3256,2.8837;} .st12{fill:none;stroke:#000000;stroke-width:1.022;stroke-linecap:round;stroke-linejoin:round;stroke-miterlimit:10;stroke-dasharray:4.0879,2.7253;} .st13{fill:none;stroke:#000000;stroke-width:1.0879;stroke-linecap:round;stroke-linejoin:round;} .st14{fill:none;stroke:#000000;stroke-width:1.0879;stroke-linecap:round;stroke-linejoin:round;stroke-dasharray:4.3505,2.9003;} .st15{fill:none;stroke:#000000;stroke-width:1.0879;stroke-linecap:round;stroke-linejoin:round;stroke-dasharray:4.4597,2.9731;} .st16{fill:none;stroke:#000000;stroke-width:1.0879;stroke-linecap:round;stroke-linejoin:round;stroke-dasharray:4.6844,3.1229;} .st17{fill:none;stroke:#000000;stroke-width:1.0879;stroke-linecap:round;stroke-linejoin:round;stroke-dasharray:4.4585,2.9723;} .st18{fill:none;stroke:#000000;stroke-width:1.0879;stroke-linecap:round;stroke-linejoin:round;stroke-dasharray:4.3295,2.8864;} .st19{fill:none;stroke:#000000;stroke-width:1.0879;stroke-linecap:round;stroke-linejoin:round;stroke-dasharray:4.4635,2.9756;} .st20{fill:none;stroke:#000000;stroke-width:1.0879;stroke-linecap:round;stroke-linejoin:round;stroke-dasharray:4.3487,2.8991;} .st21{fill:none;stroke:#000000;stroke-width:1.0879;stroke-linecap:round;stroke-linejoin:round;stroke-dasharray:4.3632,2.9088;} .st22{fill:none;stroke:#000000;stroke-width:1.0879;stroke-linecap:round;stroke-linejoin:round;stroke-dasharray:4.218,2.812;} .st23{fill:none;stroke:#000000;stroke-width:1.0879;stroke-linecap:round;stroke-linejoin:round;stroke-miterlimit:10;stroke-dasharray:4.352,2.9013;} .st24{fill:none;stroke:#000000;stroke-width:1.2938;stroke-linecap:round;stroke-linejoin:round;stroke-miterlimit:10;stroke-dasharray:5.1753,3.4502;} .st25{fill:none;stroke:#000000;stroke-width:1.0559;stroke-linecap:round;stroke-linejoin:round;stroke-miterlimit:10;stroke-dasharray:4.2237,2.8158;} .st26{fill:none;stroke:#000000;stroke-width:1.0219;stroke-linecap:round;stroke-linejoin:round;} .st27{fill:none;stroke:#000000;stroke-width:1.0219;stroke-linecap:round;stroke-linejoin:round;stroke-dasharray:4.7602,3.1735;} .st28{fill:none;stroke:#000000;stroke-width:1.0219;stroke-linecap:round;stroke-linejoin:round;stroke-dasharray:4.0431,2.6954;} .st29{fill:none;stroke:#000000;stroke-width:1.0219;stroke-linecap:round;stroke-linejoin:round;stroke-dasharray:4.0331,2.6887;} .st30{fill:none;stroke:#000000;stroke-width:1.0219;stroke-linecap:round;stroke-linejoin:round;stroke-dasharray:4.11,2.74;} .st31{fill:none;stroke:#000000;stroke-width:1.0219;stroke-linecap:round;stroke-linejoin:round;stroke-dasharray:3.5458,2.3639;} .st32{fill:none;stroke:#000000;stroke-width:1.0219;stroke-linecap:round;stroke-linejoin:round;stroke-dasharray:4.2544,2.8363;} .st33{fill:none;stroke:#000000;stroke-width:1.0219;stroke-linecap:round;stroke-linejoin:round;stroke-dasharray:3.9438,2.6292;} .st34{fill:none;stroke:#000000;stroke-width:1.0219;stroke-linecap:round;stroke-linejoin:round;stroke-miterlimit:10;stroke-dasharray:4.0874,2.7249;}</style><path class="st0" d="M32 17.7h1120.5v159.6H32z"/><path class="st1" d="M19.5 17.7H1140v159.6H19.5z"/><path class="st2" d="M105.7 47.6v11.1l-8.8 88.7c0 .6.5 1.2 1.1 1.2h23.7c.5 0 1-.4 1.1-.9l13.6-61.6 13.6 61.6c.1.5.6.9 1.1.9h23.7c.6 0 1.2-.6 1.1-1.2l-8.7-88.5V47.6c0-.6-.6-1.1-1.2-1.1h-59.4c-.5-.1-.9.7-.9 1.1z"/><path class="st3" d="M132.1 88.2l.5-2.1.4 2.1"/><path class="st4" d="M133.7 91.1l12.5 56.6c.1.5.6.9 1.1.9H171c.6 0 1.2-.6 1.1-1.2l-8.7-88.5V47.6c0-.6-.6-1.1-1.2-1.1h-59.4c-.7 0-1.1.7-1.1 1.1v11.1L93 147.3c0 .6.5 1.2 1.1 1.2h23.7c.5 0 1-.4 1.1-.9l12.8-58"/><path class="st3" d="M161.1 57.5h-2.2"/><path class="st5" d="M156.1 57.5h-48.5"/><path class="st3" d="M106.2 57.5H104M134.5 59.8V62"/><path class="st6" d="M134.5 65.2v14.4"/><path class="st3" d="M134.4 81.2c-.1 1.1-.3 1.8-.7 2"/><g><path class="st2" d="M719.3 39.6c-.1 0-.2.1-.2.1-.2 0-.4.1-.6.2h-.1c-1 .2-1.6 1.2-1.4 2.2 2.1 11.1.6 19.6-7 25.5-.4.3-.6.7-.7 1.1 0 0-7.9 62.4-11.8 81.6-.2.9.2 1.9.7 2.6.5.7 1.2 1.1 1.9 1.5 1.4.7 3.2 1 4.9 1 1.7 0 3.4-.3 4.9-.9.7-.3 1.5-.7 2-1.4.6-.6 1-1.5 1-2.5 0-1.1-.3-2-.3-2.5 0-.2-.1-.1-.1-.1v-.1l.1-.1c.5-.4 1.4-.6 2.4-.6s1.6.3 2.2.7v.2c-.1.4-.3.8-.3 1.5s.1 1.7.8 2.4c2.1 2.1 4.6 3.3 7.1 3.3 2.6 0 5-1.2 7.1-3.3.7-.7.8-1.7.8-2.4-.1-.6-.3-1.1-.5-1.5v-.2c.5-.4 1.3-.7 2.3-.7 1 0 1.6.3 2.2.7v.2c-.1.4-.3.8-.3 1.5s0 1.7.7 2.4c2.1 2.1 4.7 3.3 7.2 3.3.8 0 1.4-.1 2.2-.3.2 0 .5-.1.7-.2 1.5-.5 3-1.4 4.3-2.7.7-.7.7-1.7.7-2.4-.1-.6-.2-1.1-.3-1.5v-.2c.5-.4 1.2-.7 2.2-.7 1 0 2 .3 2.5.7v.2c-.1.5-.3 1.4-.3 2.5 0 1 .3 1.9.9 2.5.6.6 1.4 1 2.2 1.4 1.5.6 3.1 1 4.8 1 1.7 0 3.3-.3 4.8-1 .7-.3 1.4-.8 1.9-1.5s.9-1.7.8-2.6c-3.9-27.2-11.7-81.7-11.7-81.7-.1-.6-.5-1.1-1.1-1.4-3.8-1.7-6.1-4.5-7.2-8.6-1.2-4.1-1-9.7.6-16.6.3-1-.3-2-1.3-2.3-.2-.1-.4-.1-.7-.1h-.4c-1 0-1.8.8-1.8 1.8v.2c0 3.4-1.3 6.6-3.4 8.9-2.4 2.6-5.9 4.3-9.7 4.3-7.3 0-13.2-6-13.2-13.2v-.2c.1-1-.7-1.9-1.7-1.9-.6-.1-.7-.1-.8-.1z"/><path class="st7" d="M708.7 149.9c-.1-.8-.2-1.4-.3-1.8 0-.2-.1-.1-.1-.1v-.1l.1-.1c.4-.3 1.1-.5 1.9-.5M710.9 147.2c.9 0 1.5.3 2 .7v.2c-.1.4-.3.8-.3 1.5v.4"/><path class="st8" d="M714.3 152.8c1.9 1.6 4 2.4 6.2 2.4 2.6 0 5-1.2 7.1-3.3.1-.1.2-.2.3-.4"/><path class="st7" d="M728.5 150v-.4c-.1-.6-.3-1.1-.5-1.5v-.2c.5-.3 1.2-.6 2-.7M730.4 147.2c.9 0 1.5.3 2 .7v.2c-.1.4-.3.8-.3 1.5v.4"/><path class="st9" d="M733.7 152.8c1.9 1.5 4.1 2.4 6.3 2.4.8 0 1.4-.1 2.2-.3.2 0 .5-.1.7-.2 1.5-.5 3-1.4 4.3-2.7l.3-.3"/><path class="st7" d="M747.8 150v-.4c-.1-.6-.2-1.1-.3-1.5v-.2c.5-.3 1.1-.7 2-.7M750.1 147.2c.9.1 1.6.3 2 .7v.2c-.1.4-.2 1.1-.3 1.9"/><path class="st10" d="M752.4 152.8c.1.1.2.2.2.3.6.6 1.4 1 2.2 1.4 1.5.6 3.1 1 4.8 1 1.7 0 3.3-.3 4.8-1 .7-.3 1.4-.8 1.9-1.5s.9-1.7.8-2.6c-3.9-27.2-11.7-81.7-11.7-81.7-.1-.6-.5-1.1-1.1-1.4-3.8-1.7-6.1-4.5-7.2-8.6s-1-9.7.6-16.6c.3-1-.3-2-1.3-2.3-.2-.1-.4-.1-.7-.1h-.4c-1 0-1.8.8-1.8 1.8v.2c0 3.4-1.3 6.6-3.4 8.9-2.4 2.6-5.9 4.3-9.7 4.3-7.3 0-13.2-6-13.2-13.2v-.2c.1-1-.7-1.9-1.7-1.9h-.2c-.1 0-.2.1-.2.1-.2 0-.4.1-.6.2h-.1c-1 .2-1.6 1.2-1.4 2.2 2.1 11.1.6 19.6-7 25.5-.4.3-.6.7-.7 1.1 0 0-7.9 62.4-11.8 81.6-.2.9.2 1.9.7 2.6.5.7 1.2 1.1 1.9 1.5 1.4.7 3.2 1 4.9 1 1.7 0 3.4-.3 4.9-.9.7-.3 1.5-.7 2-1.4.4-.4.8-1 .9-1.7"/><path class="st11" d="M711.2 144.6l4.7-56.3M749.3 144.6l-4.6-56.3M730.3 145V75.3"/></g><g><path class="st2" d="M480.8 62.1l-9.7-9.9c-1.9-1.9-5.4-1.9-7.3 0l-22 22h-.3c-.7-.2-1.6-.3-2.2-.5-.2 0-.5 0-.7-.2-.3 0-.7 0-1.2-.2h-1.9c-5.7 0-11.1 1.9-15.4 5.5-.7.5-1.2 1-1.7 1.6-.5.5-1 1-1.4 1.6-.2.2-.2.3-.3.5-.3.5-.7.9-1 1.4-.2.2-.2.3-.3.3-.3.5-.7 1-.9 1.6-.2.2-.2.5-.3.7-.2.5-.3.9-.7 1.4-.2.3-.2.5-.3.9-.2.5-.3 1-.5 1.4 0 .2-.2.5-.2.7-.2.5-.3 1-.3 1.6 0 .2 0 .3-.2.5-.2.5-.2 1.2-.3 1.7v.7c0 .7-.2 1.4-.2 1.9v2.1c0 .3 0 .7.2.9 0 .3.2.7.2.9.2.7.3 1.6.5 2.2v.3l-21.6 22c-1 1-1.6 2.4-1.6 3.8s.5 2.8 1.6 3.6l9.7 9.9c1 .9 2.2 1.4 3.6 1.4s2.8-.5 3.6-1.6l21.8-21.8h.2c.9.2 1.6.3 2.4.5h.5c.3 0 .9.2 1.2.2h1.8c6.4 0 12.5-2.6 17.1-7.1.5-.5 1-1 1.4-1.6.2-.2.2-.3.3-.5.3-.5.7-1 1-1.6 0-.2.2-.2.2-.3.3-.5.7-1 .9-1.6.2-.2.2-.5.3-.7.2-.5.5-.9.7-1.4.2-.2.2-.5.3-.7.2-.5.3-1 .5-1.6 0-.2.2-.5.2-.7.2-.5.3-1 .3-1.7v-.3c.2-.7.2-1.2.3-1.9v-.5c0-.7.2-1.4.2-2.1v-.3-1.7c0-.3 0-.5-.2-.9 0-.3-.2-.7-.2-1-.2-.7-.2-1.4-.5-2.1v-.3l21.8-21.8c2.7-1.9 2.7-5.2.6-7.2z"/><path class="st12" d="M431.2 80.2c-4.7 0-9 1.7-12.3 5-6.7 6.7-6.7 17.6 0 24.4 3.3 3.3 7.6 5 12.3 5s9-1.7 12.3-5c6.7-6.7 6.7-17.6 0-24.4-3.3-3.2-7.6-5-12.3-5zm45.2-18.1l-9.7-9.9c-1.9-1.9-5.4-1.9-7.3 0l-22 22h-.3c-.7-.2-1.6-.3-2.2-.5-.2 0-.5 0-.7-.2-.3 0-.7 0-1.2-.2h-1.9c-5.7 0-11.1 1.9-15.4 5.5-.7.5-1.2 1-1.7 1.6-.5.5-1 1-1.4 1.6-.2.2-.2.3-.3.5-.3.5-.7.9-1 1.4-.2.2-.2.3-.3.3-.3.5-.7 1-.9 1.6-.2.2-.2.5-.3.7-.2.5-.3.9-.7 1.4-.2.3-.2.5-.3.9-.2.5-.3 1-.5 1.4 0 .2-.2.5-.2.7-.2.5-.3 1-.3 1.6 0 .2 0 .3-.2.5-.2.5-.2 1.2-.3 1.7v.7c0 .7-.2 1.4-.2 1.9v2.1c0 .3 0 .7.2.9 0 .3.2.7.2.9.2.7.3 1.6.5 2.2v.3l-21.6 22c-1 1-1.6 2.4-1.6 3.8s.5 2.8 1.6 3.6l9.7 9.9c1 .9 2.2 1.4 3.6 1.4s2.8-.5 3.6-1.6l21.8-21.8h.2c.9.2 1.6.3 2.4.5h.5c.3 0 .9.2 1.2.2h1.8c6.4 0 12.5-2.6 17.1-7.1.5-.5 1-1 1.4-1.6.2-.2.2-.3.3-.5.3-.5.7-1 1-1.6 0-.2.2-.2.2-.3.3-.5.7-1 .9-1.6.2-.2.2-.5.3-.7.2-.5.5-.9.7-1.4.2-.2.2-.5.3-.7.2-.5.3-1 .5-1.6 0-.2.2-.5.2-.7.2-.5.3-1 .3-1.7v-.3c.2-.7.2-1.2.3-1.9v-.5c0-.7.2-1.4.2-2.1v-.3-1.7c0-.3 0-.5-.2-.9 0-.3-.2-.7-.2-1-.2-.7-.2-1.4-.5-2.1v-.3l21.8-21.8c2.6-1.9 2.6-5.2.6-7.2zm0 0l-9.7-9.9c-1.9-1.9-5.4-1.9-7.3 0l-22 22h-.3c-.7-.2-1.6-.3-2.2-.5-.2 0-.5 0-.7-.2-.3 0-.7 0-1.2-.2h-1.9c-5.7 0-11.1 1.9-15.4 5.5-.7.5-1.2 1-1.7 1.6-.5.5-1 1-1.4 1.6-.2.2-.2.3-.3.5-.3.5-.7.9-1 1.4-.2.2-.2.3-.3.3-.3.5-.7 1-.9 1.6-.2.2-.2.5-.3.7-.2.5-.3.9-.7 1.4-.2.3-.2.5-.3.9-.2.5-.3 1-.5 1.4 0 .2-.2.5-.2.7-.2.5-.3 1-.3 1.6 0 .2 0 .3-.2.5-.2.5-.2 1.2-.3 1.7v.7c0 .7-.2 1.4-.2 1.9v2.1c0 .3 0 .7.2.9 0 .3.2.7.2.9.2.7.3 1.6.5 2.2v.3l-21.6 22c-1 1-1.6 2.4-1.6 3.8s.5 2.8 1.6 3.6l9.7 9.9c1 .9 2.2 1.4 3.6 1.4s2.8-.5 3.6-1.6l21.8-21.8h.2c.9.2 1.6.3 2.4.5h.5c.3 0 .9.2 1.2.2h1.8c6.4 0 12.5-2.6 17.1-7.1.5-.5 1-1 1.4-1.6.2-.2.2-.3.3-.5.3-.5.7-1 1-1.6 0-.2.2-.2.2-.3.3-.5.7-1 .9-1.6.2-.2.2-.5.3-.7.2-.5.5-.9.7-1.4.2-.2.2-.5.3-.7.2-.5.3-1 .5-1.6 0-.2.2-.5.2-.7.2-.5.3-1 .3-1.7v-.3c.2-.7.2-1.2.3-1.9v-.5c0-.7.2-1.4.2-2.1v-.3-1.7c0-.3 0-.5-.2-.9 0-.3-.2-.7-.2-1-.2-.7-.2-1.4-.5-2.1v-.3l21.8-21.8c2.6-1.9 2.6-5.2.6-7.2zm-72.9 75.4v-14H393m19.2 5.3v-14h-10.6m48.6-48.6v12.3h12.1m-3.4-20.9v12.3H471m-41.5 20.7v8.6h10.1"/></g><g><path class="st2" d="M884 128.4c-4.4-5-8.5-11.1-11.5-17.4-2.8-5.8-4.6-11.7-4.8-17.1-.2-5.8 1.4-10.9 5.5-14.6 1.2-1.1 2.6-2 4.2-2.7.7-.3 4.3-2 9.1-3.2l.4-.1V70h-.3c-1.5 0-2.9-.6-4-1.7-1-1-1.7-2.4-1.7-4v-5.1c0-1.6.6-3 1.7-4 1-1 2.4-1.7 4-1.7h5.9c-1-.5-1.9-1.3-2.6-2.2-.9-1.2-1.6-2.7-1.8-4.3-20.5 1.2-33.6 14.3-38.8 30.3-2.2 6.7-3.1 13.9-2.6 21s2.4 14 5.6 20.1c7.3 13.8 21.8 27 43.8 25.3.6-2.7 2.2-5 4.4-6.8 2.7-2.2 6.5-3.6 10.5-3.6 4.1 0 7.8 1.4 10.5 3.6 2.9 2.3 4.7 5.6 4.7 9.3 0 3.6-1.8 6.9-4.7 9.3-2.7 2.2-6.5 3.6-10.5 3.6-4.1 0-7.8-1.4-10.5-3.6-2.1-1.7-3.6-3.9-4.3-6.4-24.3 1.7-40.4-12.7-48.7-28.2-3.6-6.8-5.7-14.4-6.2-22.2-.5-7.8.4-15.7 2.9-23.1 6-18.1 20.9-32.9 44.2-34h.2c.3-.9.8-1.8 1.4-2.5 1.4-1.8 3.4-2.9 5.6-2.9 2.2 0 4.2 1.1 5.6 2.9 1.2 1.6 2 3.8 2 6.1 0 2.4-.8 4.5-2 6.1-.7.9-1.6 1.7-2.6 2.2h5.9c1.5 0 2.9.6 4 1.7 1 1 1.6 2.4 1.6 4v5.1c0 1.6-.6 3-1.6 4l-.2.2c-1 .9-2.3 1.5-3.8 1.5h-.3v3.3l.4.1c4.8 1.2 8.5 2.9 9.1 3.2 1.6.8 3 1.7 4.2 2.7 4.2 3.7 5.8 8.9 5.5 14.6-.2 5.4-2 11.3-4.8 17.1-3 6.4-7.3 12.6-11.7 17.6-.5.6-1.3.9-2 .9h-18.8c-.9 0-1.6-.4-2.1-1.1z"/><path class="st13" d="M881 73.7c.5-.2 1.1-.3 1.7-.5l.4-.1v-3.3h-.3c-.6 0-1.3-.1-1.8-.3"/><path class="st14" d="M878.5 67.9c-.9-1-1.4-2.3-1.4-3.7v-5.1c0-1.6.6-3 1.7-4 1-1 2.4-1.7 4-1.7h2.3"/><path class="st13" d="M886.5 53.5h2.2c-.6-.3-1.2-.7-1.8-1.3M884.8 49c-.3-.7-.5-1.4-.6-2.1-.7 0-1.5.1-2.2.2"/><path class="st15" d="M879.1 47.5c-17.6 2.9-28.9 15.1-33.7 29.7-2.2 6.7-3.1 13.9-2.6 21s2.4 14 5.6 20.1c6.9 13 20.2 25.5 40.2 25.5"/><path class="st13" d="M890 143.8c.7 0 1.4-.1 2.2-.1.2-.7.4-1.4.7-2.1"/><path class="st16" d="M894.5 138.9c.6-.8 1.3-1.4 2.1-2.1 2.7-2.2 6.5-3.6 10.5-3.6 2.7 0 5.2.6 7.4 1.6"/><path class="st13" d="M915.9 135.6l1.8 1.2c.6.5 1.1 1 1.6 1.5"/><path class="st17" d="M921 140.8c.9 1.6 1.4 3.4 1.4 5.3 0 3.6-1.8 6.9-4.7 9.3-2.7 2.2-6.5 3.6-10.5 3.6-4.1 0-7.8-1.4-10.5-3.6-1.1-.9-2-1.9-2.8-3.1"/><path class="st13" d="M893.1 151.1c-.3-.7-.6-1.3-.8-2-.7.1-1.5.1-2.2.1"/><path class="st18" d="M887.3 149.1c-21.5-.5-35.9-13.9-43.6-28.3-3.6-6.8-5.7-14.4-6.2-22.2-.5-7.8.4-15.7 2.9-23.1 5.7-17.2 19.4-31.4 40.8-33.7"/><path class="st13" d="M882.5 41.7c.7-.1 1.3-.1 2-.1h.2c.3-.9.8-1.8 1.4-2.5.5-.6 1-1.1 1.5-1.5"/><path class="st19" d="M890.3 36.2c.4-.1.9-.1 1.4-.1 2.2 0 4.2 1.1 5.6 2.9 1.2 1.6 2 3.8 2 6.1s-.7 4.4-1.9 6"/><path class="st13" d="M896.4 52.2c-.5.5-1.1.9-1.8 1.3h2.2"/><path class="st20" d="M899.7 53.5h.8c1.5 0 2.9.6 4 1.7 1 1 1.6 2.4 1.6 4v5.1c0 1.6-.6 3-1.6 4l-.2.2c-.2.2-.4.4-.6.5"/><path class="st13" d="M902.4 69.5c-.6.2-1.2.3-1.8.3h-.3v3.3l.4.1c.6.1 1.1.3 1.7.5"/><path class="st21" d="M905.1 74.6c2.5.9 4.3 1.7 4.7 1.9 1.6.8 3 1.7 4.2 2.7 4.2 3.7 5.8 8.9 5.5 14.6-.2 5.4-2 11.3-4.8 17.1-2.8 5.9-6.7 11.7-10.8 16.5"/><path class="st13" d="M903 128.7c-.5.6-1.2.8-1.9.8h-2.2"/><path class="st22" d="M896 129.5h-13.8c-.9 0-1.7-.4-2.2-1.1-4.4-5-8.5-11.1-11.5-17.4-2.8-5.8-4.6-11.7-4.8-17.1-.2-5.8 1.4-10.9 5.5-14.6 1.2-1.1 2.6-2 4.2-2.7.5-.3 2.8-1.3 6.1-2.4"/><path class="st23" d="M878.8 117.5c-2.2-3.3-3.5-6.5-5.4-10.3-1.8-3.4-2.8-7.1-3.4-10.5"/></g><g><path class="st2" d="M1084.4 98l-7.9-39.2c-.5-2.5-2.6-5.1-4.9-6.1l-10.7-4.7c-3.4-1.5-3.9-1.5-4.3-1.5-.7 0-1.2 0-4.2 2.9-.1.1-9.9 9.5-18.8 9.5-8.8 0-18.7-9.4-18.8-9.5-3-2.9-3.6-2.9-4.2-2.9-.3 0-.8 0-4.2 1.5l-10.7 4.7c-2.3 1-4.4 3.6-4.9 6.1L982.9 98c-.6 2.9 1.1 5.8 3.9 6.7l10 3.2c.8.3 1.6 1.3 1.6 2.2V143c0 3 2.4 5.4 5.4 5.4h59.5c3 0 5.4-2.4 5.4-5.4v-32.8c0-.9.8-2 1.7-2.3l10-3.2c2.9-.9 4.6-3.8 4-6.7z"/><path class="st24" d="M1079.5 98l-7.9-39.2c-.5-2.5-2.6-5.1-4.9-6.1L1056 48c-3.4-1.5-3.9-1.5-4.3-1.5-.7 0-1.2 0-4.2 2.9-.1.1-9.9 9.5-18.8 9.5-8.8 0-18.7-9.4-18.8-9.5-3-2.9-3.6-2.9-4.2-2.9-.3 0-.8 0-4.2 1.5l-10.7 4.7c-2.3 1-4.4 3.6-4.9 6.1L978 98c-.6 2.9 1.1 5.8 3.9 6.7l10 3.2c.8.3 1.6 1.3 1.6 2.2V143c0 3 2.4 5.4 5.4 5.4h59.5c3 0 5.4-2.4 5.4-5.4v-32.8c0-.9.8-2 1.7-2.3l10-3.2c2.9-.9 4.6-3.8 4-6.7zM997 106.6l2.8-16.1M1060.5 106.6l-2.7-16.1"/></g><g><path class="st2" d="M637.4 70.2c-1-1-2.5-1.6-3.8-1.8-.8-.3-1.8-.4-3-.1-.8 0-1.6.1-2.1.1-.3 0-.6 0-.8.1-.4 0-1.2.1-1.9.1-1.9.1-7.9.6-9.6.3-.4-.9-.8-3.5-1.2-6.1-.5-3.1-1-7-2.1-11.7-1.9-9.9-10.9-11.6-15.3-11H571.8c-4.5-.5-13.4 1.2-15.5 11-.9 4.7-1.6 8.6-2.1 11.7-.4 2.6-.8 5.2-1.2 6.1-1.7.4-7.5-.1-9.6-.3-.9 0-1.6-.1-1.9-.1-.3 0-.5 0-.8-.1-.5 0-1.3-.1-2.1-.1-1.2-.1-2.2 0-3 .1-1.3.3-2.7.8-3.8 1.8-1.6 1.4-2.2 3.5-2.1 6.4.1 2.3 1 23.4 4 32.9 2.6 7.9 7.5 18.3 20.5 18.3h3.5l-4.7 19c-.1 1.4.9 2.9 2.5 3h.4c1.4 0 2.6-1 2.7-2.3l4.7-19.6v-.1h.1l-2.5 9.9c0 1 .9 1.8 2.2 1.8h.1c1.2 0 2.2-.8 2.2-1.7l2.5-10.1H601l1.7 9.9c0 1 .6 1.8 1.9 1.8h.5c1.2 0 2.3-1 2.3-2l-2-8.4 4.4 18.7c.1 1.3 1.3 2.3 2.7 2.3h.4c1.6-.3 2.6-1.6 2.5-3l-4.4-19h3.5c13.1 0 18.1-10.5 20.5-18.3 3.1-9.5 4-30.5 4-32.9.7-3 0-5.2-1.6-6.6z"/><path class="st25" d="M633.9 70.2c-1-1-2.5-1.6-3.8-1.8-.8-.3-1.8-.4-3-.1-.8 0-1.6.1-2.1.1-.3 0-.6 0-.8.1-.4 0-1.2.1-1.9.1-1.9.1-7.9.6-9.6.3-.4-.9-.8-3.5-1.2-6.1-.5-3.1-1-7-2.1-11.7-1.9-9.9-10.9-11.6-15.3-11H568.3c-4.5-.5-13.4 1.2-15.5 11-.9 4.7-1.6 8.6-2.1 11.7-.4 2.6-.8 5.2-1.2 6.1-1.7.4-7.5-.1-9.6-.3-.9 0-1.6-.1-1.9-.1-.3 0-.5 0-.8-.1-.5 0-1.3-.1-2.1-.1-1.2-.1-2.2 0-3 .1-1.3.3-2.7.8-3.8 1.8-1.6 1.4-2.2 3.5-2.1 6.4.1 2.3 1 23.4 4 32.9 2.6 7.9 7.5 18.3 20.5 18.3h3.5l-4.7 19c-.1 1.4.9 2.9 2.5 3h.4c1.4 0 2.6-1 2.7-2.3l4.7-19.6v-.1h.1l-2.5 9.9c0 1 .9 1.8 2.2 1.8h.1c1.2 0 2.2-.8 2.2-1.7l2.5-10.1h33.1l1.7 9.9c0 1 .6 1.8 1.9 1.8h.5c1.2 0 2.3-1 2.3-2l-2-8.4 4.4 18.7c.1 1.3 1.3 2.3 2.7 2.3h.4c1.6-.3 2.6-1.6 2.5-3l-4.4-19h3.5c13.1 0 18.1-10.5 20.5-18.3 3.1-9.5 4-30.5 4-32.9.7-3-.1-5.2-1.6-6.6z"/><path class="st25" d="M616.3 89.8c-.5-.8-1.2-1.6-1.9-2.3-3-2.9-6.6-3.9-9.2-4.3 1.3-6.1 4.9-9.5 6.5-10.7M550.6 72.4c1.6 1.2 5.2 4.5 6.5 10.7-2.6.4-6.2 1.4-9.2 4.3-.8.6-1.3 1.4-1.9 2.3"/><path d="M560 139zM601.6 139z"/><path class="st25" d="M534.7 71.9c1.2.3 2.7 1.2 3.8 4.3 2.7 7.9 4.9 17.9 4.7 21.7h.1c-.1.9-.1 1.9-.1 3 0 3.2 1 5.7 2.9 7.5 2.9 2.7 7 3.1 10.8 3.1 1 0 2.1 0 3-.1h1.7c4.9 0 15.9.1 19.1.1h1c3.2 0 14.3-.1 19.1-.1h1.7c.9 0 1.9.1 3 .1 3.8 0 7.9-.5 10.8-3.1 1.8-1.8 2.9-4.3 2.9-7.5 0-1 0-2.1-.1-3h.1c-.3-3.8 1.8-13.6 4.7-21.7 1-3 2.6-4 3.8-4.3M547.4 91.2h66.9"/></g><g><path class="st2" d="M326 59.6h-57.4c-2.9 0-5.8 2-7 4.8-1.1 2.7-3.8 4.6-6.9 4.6h-.9c1.4-.1 2.6-1.3 2.6-2.8 0-1.6-1.3-2.8-2.8-2.8h-5.7c-1.6 0-2.8 1.3-2.8 2.8 0 1.6 1.3 2.8 2.8 2.8H245c-4.2 0-7.5 3.4-7.5 7.5v43.3c0 4.2 3.4 7.5 7.5 7.5h81c4.2 0 7.5-3.4 7.5-7.5V67.1c0-4.2-3.4-7.5-7.5-7.5z"/><path class="st26" d="M252.7 68.9c-.4.1-.8.1-1.2.1h-.9c.7-.1 1.3-.4 1.8-.9"/><path class="st27" d="M253 65.1c-.4-1.1-1.4-1.8-2.6-1.8h-5.7c-1.6 0-2.8 1.3-2.8 2.8 0 .3 0 .5.1.8"/><path class="st26" d="M242.9 68.3c.5.4 1.2.7 1.9.7h-2"/><path class="st28" d="M240 69.2c-3.2.8-5.6 3.8-5.6 7.3v43.3c0 4.2 3.4 7.5 7.5 7.5h81c4.2 0 7.5-3.4 7.5-7.5V67.1c0-4.2-3.4-7.5-7.5-7.5h-57.4c-2.9 0-5.8 2-7 4.8-.8 2-2.4 3.5-4.5 4.2"/><path class="st29" d="M276.8 71.8h11.3c1.6 0 2.8-1.3 2.8-2.8 0-1.6-1.3-2.8-2.8-2.8h-11.3c-1.6 0-2.8 1.3-2.8 2.8-.1 1.5 1.2 2.8 2.8 2.8z"/><circle class="st30" cx="282.4" cy="96.3" r="20.7"/><g><circle class="st31" cx="305" cy="72.8" r="2.8"/></g><g><circle class="st32" cx="317.3" cy="72.8" r="5.7"/></g><g><circle class="st33" cx="282.4" cy="96.3" r="9.4"/></g><path class="st34" d="M246.9 69h1.5"/></g></svg>