<svg id="Capa_1" xmlns="http://www.w3.org/2000/svg" viewBox="0 0 350 416.5"><style>.st0{fill:#F1F1F1;} .st1{fill:#EAABAB;} .st2{fill:none;stroke:#000000;stroke-width:3;stroke-linecap:round;stroke-linejoin:round;} .st3{fill:none;stroke:#000000;stroke-width:3;stroke-linecap:round;stroke-linejoin:round;stroke-dasharray:14.1826,9.4551;} .st4{fill:none;stroke:#000000;stroke-width:3;stroke-linecap:round;stroke-linejoin:round;stroke-dasharray:14.175,9.45;} .st5{fill:none;stroke:#000000;stroke-width:3;stroke-linecap:round;stroke-linejoin:round;stroke-dasharray:12.0832,8.0555;} .st6{fill:none;stroke:#000000;stroke-width:3;stroke-linecap:round;stroke-linejoin:round;stroke-miterlimit:10;stroke-dasharray:12,8;} .st7{fill:#E3E3E3;} .st8{fill:#DCEBFD;} .st9{fill:none;stroke:#E3E3E3;stroke-width:3;stroke-linecap:round;stroke-linejoin:round;stroke-miterlimit:10;}</style><path class="st0" d="M0 0h350v416.5H0z"/><path class="st1" d="M142 47.5l-.6.3c-.6.1-1.1.3-1.6.6h-.3c-2.7.6-4.4 3.3-3.8 6 5.8 30.8 1.6 54.5-19.5 70.6-1 .8-1.7 1.9-1.9 3.1 0 0-22 173.2-32.7 226.4-.5 2.6.4 5.3 1.9 7.2 1.5 2 3.4 3.2 5.3 4.1 4 1.8 8.8 2.8 13.5 2.8 4.7 0 9.4-.8 13.5-2.5 2.1-.9 4-2 5.7-3.8 1.6-1.7 2.8-4.2 2.8-6.9 0-3-.7-5.5-.9-6.9-.1-.4-.3-.2-.3-.3v-.3l.3-.3c1.4-1 3.9-1.6 6.6-1.6 2.6 0 4.5.9 6 1.9-.1.3.1.3 0 .6-.3 1-.8 2.3-.9 4.1s.3 4.7 2.2 6.6c5.8 5.8 12.7 9.1 19.8 9.1s14-3.3 19.8-9.1c1.9-1.9 2.3-4.8 2.2-6.6-.1-1.7-.9-3.1-1.3-4.1-.1-.3.1-.4 0-.6 1.4-1 3.6-1.9 6.3-1.9 2.6 0 4.5.9 6 1.9-.1.3.1.3 0 .6-.3 1-.8 2.3-.9 4.1-.1 1.7 0 4.7 1.9 6.6 5.8 5.8 13 9.1 20.1 9.1 2.1 0 3.9-.4 6-.9.7-.1 1.3-.3 1.9-.6 4.2-1.5 8.4-4 11.9-7.5 1.9-1.9 2-4.8 1.9-6.6-.1-1.7-.6-3.1-.9-4.1-.1-.3.1-.4 0-.6 1.4-1 3.3-1.9 6-1.9 2.9 0 5.6.8 6.9 1.9 0 0 .1-.1 0 .6-.2 1.4-.9 3.9-.9 6.9 0 2.7.9 5.2 2.5 6.9 1.6 1.7 3.9 2.9 6 3.8 4.1 1.8 8.5 2.8 13.2 2.8 4.7 0 9.2-1 13.2-2.8 2-.9 3.9-2.1 5.3-4.1 1.5-2 2.6-4.6 2.2-7.2-10.8-75.5-32.3-226.7-32.3-226.7-.3-1.7-1.5-3.1-3.1-3.8-10.6-4.7-16.9-12.4-20.1-23.9-3.2-11.4-2.7-27 1.6-46.2.8-2.7-.8-5.6-3.5-6.4-.6-.2-1.2-.2-1.8-.2H226c-2.8 0-5 2.2-5.1 5v.7c0 9.5-3.5 18.3-9.4 24.8-6.7 7.3-16.3 11.9-27 11.9-20.2 0-36.7-16.5-36.7-36.7v-.6c.2-2.8-1.9-5.2-4.7-5.3H142z"/><path class="st2" d="M115.5 353.7c-.2-2.2-.7-4-.9-5.1-.1-.4-.3-.2-.3-.3v-.3l.3-.3c1.2-.9 3.1-1.4 5.3-1.5M121.5 346.1c2.5.1 4.2.9 5.6 1.9-.1.3.1.3 0 .6-.3 1-.8 2.3-.9 4.1v1.2"/><path class="st3" d="M131 361.6c5.2 4.3 11.2 6.8 17.2 6.8 7.1 0 14-3.3 19.8-9.1.3-.3.6-.7.8-1"/><path class="st2" d="M170.2 353.8v-1.1c-.1-1.7-.9-3.1-1.3-4.1-.1-.3.1-.4 0-.6 1.3-.9 3.3-1.7 5.6-1.9M175.5 346.1c2.5.1 4.2.9 5.6 1.9-.1.3.1.3 0 .6-.3 1-.8 2.3-.9 4.1v1.2"/><path class="st4" d="M184.7 361.7c5.3 4.3 11.4 6.7 17.5 6.7 2.1 0 3.9-.4 6-.9.7-.1 1.3-.3 1.9-.6 4.2-1.5 8.4-4 11.9-7.5.3-.3.5-.6.7-.9"/><path class="st2" d="M223.9 353.9v-1.2c-.1-1.7-.6-3.1-.9-4.1-.1-.3.1-.4 0-.6 1.4-1 3.1-1.8 5.6-1.9M230.2 346.1c2.4.2 4.5.9 5.6 1.8 0 0 .1-.1 0 .6-.2 1.2-.7 3-.9 5.2"/><path class="st5" d="M236.7 361.5c.2.3.4.6.7.9 1.6 1.7 3.9 2.9 6 3.8 4.1 1.8 8.5 2.8 13.2 2.8 4.7 0 9.2-1 13.2-2.8 2-.9 3.9-2.1 5.3-4.1 1.5-2 2.6-4.6 2.2-7.2-10.8-75.5-32.3-226.7-32.3-226.7-.3-1.7-1.5-3.1-3.1-3.8-10.6-4.7-16.9-12.4-20.1-23.9-3.2-11.4-2.7-27 1.6-46.2.8-2.7-.8-5.6-3.5-6.4-.6-.2-1.2-.2-1.8-.2h-1.2c-2.8 0-5 2.2-5.1 5v.7c0 9.5-3.5 18.3-9.4 24.8-6.7 7.3-16.3 11.9-27 11.9-20.2 0-36.7-16.5-36.7-36.7v-.6c.2-2.8-1.9-5.2-4.7-5.3h-.6l-.6.3c-.6.1-1.1.3-1.6.6h-.3c-2.7.6-4.4 3.3-3.8 6 5.8 30.8 1.6 54.5-19.5 70.6-1 .8-1.7 1.9-1.9 3.1 0 0-22 173.2-32.7 226.4-.5 2.6.4 5.3 1.9 7.2 1.5 2 3.4 3.2 5.3 4.1 4 1.8 8.8 2.8 13.5 2.8 4.7 0 9.4-.8 13.5-2.5 2.1-.9 4-2 5.7-3.8 1.2-1.2 2.1-2.9 2.6-4.7"/><path class="st6" d="M122.3 339l12.9-156.3M228 339l-12.9-156.3M175.2 340.1V146.7"/><g><path class="st7" d="M80.6 105.5c-5.2 0-9.5-4.2-9.6-9.5v-.1c0-5.7 4.6-10.4 10.3-10.4 1.4 0 2.8.3 4 .8 2.6-3.3 6.7-5.4 11.3-5.4 6.4 0 11.7 4.1 13.7 9.9 1.1-.6 2.4-.9 3.8-.9 4.5 0 8.2 3.7 8.2 8.3 0 4-3.3 7.3-7.4 7.3H80.6z"/><path class="st8" d="M57.2 117.8c-2.6 0-4.8-2.1-4.8-4.7 0-2.9 2.3-5.2 5.2-5.2.7 0 1.4.1 2 .4 1.3-1.7 3.4-2.7 5.6-2.7 3.2 0 5.9 2.1 6.8 4.9.6-.3 1.2-.5 1.9-.5 2.3 0 4.1 1.9 4.1 4.1 0 2-1.7 3.7-3.7 3.7H57.2z"/><path class="st7" d="M301.4 139.7c2.8 0 5-2.2 5-5 0-3-2.4-5.5-5.4-5.5-.7 0-1.5.2-2.1.4-1.4-1.7-3.5-2.9-5.9-2.9-3.3 0-6.2 2.2-7.2 5.2-.6-.3-1.3-.5-2-.5-2.4 0-4.3 1.9-4.3 4.3 0 2.1 1.7 3.8 3.9 3.8h18z"/><path class="st8" d="M263.6 122.8c-3.7 0-6.7-3-6.7-6.7 0-4 3.2-7.3 7.2-7.3 1 0 1.9.2 2.8.6 1.9-2.3 4.7-3.8 7.9-3.8 4.5 0 8.3 2.9 9.6 6.9.8-.4 1.7-.7 2.7-.7 3.2 0 5.8 2.6 5.8 5.8 0 2.8-2.3 5.1-5.2 5.1h-24.1z"/><path class="st9" d="M86.4 126.8H53M46.4 126.8h-5.7M31.9 126.8H18.7M329.3 93.2h-50.4M272.2 93.2h-5.6M257.8 93.2h-20.2M74 136.2H40.7M285.3 84.6h-33.4"/></g></svg>