<svg id="svg_help_product_8" xmlns="http://www.w3.org/2000/svg" viewBox="0 0 350 416.5">
  <style>
    #svg_help_product_8 .st0{fill:#F2F2F2;} #svg_help_product_8 .st1{fill:#D7EDFF;} #svg_help_product_8 .st2{fill:#BC1200;} #svg_help_product_8 .st3{fill:#00E582;stroke:#000000;stroke-width:2;stroke-miterlimit:10;} #svg_help_product_8 .st4{fill:#6C6C6C;} #svg_help_product_8 .st5{fill:#00E582;} #svg_help_product_8 .st6{stroke:#000000;stroke-width:3;stroke-miterlimit:10;} #svg_help_product_8 .st7{fill:#AFAFAF;} #svg_help_product_8 .st8{fill:#DBCCA9;stroke:#000000;stroke-width:3;stroke-miterlimit:10;} #svg_help_product_8 .st9{fill:#E42320;} #svg_help_product_8 .st10{fill:#FFFFFF;} #svg_help_product_8 .st11{fill:#FFE400;} #svg_help_product_8 .st12{fill:#0080FF;} #svg_help_product_8 .st13{fill:#0067BC;} #svg_help_product_8 .st14{fill:#FFA100;} #svg_help_product_8 .st15{stroke:#000000;stroke-width:2;stroke-miterlimit:10;} #svg_help_product_8 .st16{fill:#444444;stroke:#000000;stroke-width:2;stroke-miterlimit:10;} #svg_help_product_8 .st17{fill:#C1003C;} #svg_help_product_8 .st18{fill:#FC004E;} #svg_help_product_8 .st19{fill:#8B00BF;} #svg_help_product_8 .st20{fill:#A100FF;} #svg_help_product_8 .st21{fill:none;stroke:#000000;stroke-width:3;stroke-linecap:round;stroke-linejoin:round;} #svg_help_product_8 .st22{fill:none;stroke:#000000;stroke-width:3;stroke-linecap:round;stroke-linejoin:round;stroke-dasharray:14.1826,9.4551;} #svg_help_product_8 .st23{fill:none;stroke:#000000;stroke-width:3;stroke-linecap:round;stroke-linejoin:round;stroke-dasharray:14.175,9.45;} #svg_help_product_8 .st24{fill:none;stroke:#000000;stroke-width:3;stroke-linecap:round;stroke-linejoin:round;stroke-dasharray:12.0832,8.0555;} #svg_help_product_8 .st25{fill:none;stroke:#000000;stroke-width:3;stroke-linecap:round;stroke-linejoin:round;stroke-miterlimit:10;stroke-dasharray:12,8;} #svg_help_product_8 .st26{fill:#E5E5E5;} #svg_help_product_8 .st27{fill:none;stroke:#E5E5E5;stroke-width:3;stroke-linecap:round;stroke-linejoin:round;stroke-miterlimit:10;} #svg_help_product_8 .st28{fill:#1D1E1C;} #svg_help_product_8 .st29{fill:#0093C6;} #svg_help_product_8 .st30{fill:url(#SVGID_1_);} #svg_help_product_8 .st31{fill:url(#SVGID_2_);} #svg_help_product_8 .st32{fill:#6DFCB5;} #svg_help_product_8 .st33{fill:none;stroke:#000000;stroke-width:3;stroke-miterlimit:10;} #svg_help_product_8 .st34{fill:#E0D500;} #svg_help_product_8 .st35{fill:none;stroke:#000000;stroke-width:3;stroke-linecap:round;stroke-linejoin:round;stroke-miterlimit:10;} #svg_help_product_8 .st36{opacity:0.25;} #svg_help_product_8 .st37{fill:none;stroke:#000000;stroke-width:2;stroke-miterlimit:10;} #svg_help_product_8 .st38{fill:none;stroke:#000000;stroke-width:3;stroke-linecap:round;stroke-linejoin:round;stroke-dasharray:14.3163,9.5442;} #svg_help_product_8 .st39{fill:none;stroke:#000000;stroke-width:3;stroke-linecap:round;stroke-linejoin:round;stroke-dasharray:14.636,9.7574;} #svg_help_product_8 .st40{fill:none;stroke:#000000;stroke-width:3;stroke-linecap:round;stroke-linejoin:round;stroke-dasharray:13.8351,9.2234;} #svg_help_product_8 .st41{fill:none;stroke:#000000;stroke-width:3;stroke-linecap:round;stroke-linejoin:round;stroke-dasharray:14.6007,9.7338;} #svg_help_product_8 .st42{fill:none;stroke:#000000;stroke-width:3;stroke-linecap:round;stroke-linejoin:round;stroke-dasharray:14.8718,9.9145;} #svg_help_product_8 .st43{fill:none;stroke:#000000;stroke-width:3;stroke-linecap:round;stroke-linejoin:round;stroke-dasharray:13.7735,9.1823;} #svg_help_product_8 .st44{fill:none;stroke:#000000;stroke-width:3;stroke-linecap:round;stroke-linejoin:round;stroke-dasharray:14.6853,9.7902;} #svg_help_product_8 .st45{fill:none;stroke:#000000;stroke-width:3;stroke-linecap:round;stroke-linejoin:round;stroke-dasharray:14.3237,9.5491;} #svg_help_product_8 .st46{fill:none;stroke:#000000;stroke-width:3;stroke-linecap:round;stroke-linejoin:round;stroke-dasharray:12.437,8.2913;} #svg_help_product_8 .st47{fill:none;stroke:#000000;stroke-width:3;stroke-linecap:round;stroke-linejoin:round;stroke-dasharray:9.6266,6.4178;} #svg_help_product_8 .st48{fill:none;stroke:#000000;stroke-width:3;stroke-linecap:round;stroke-linejoin:round;stroke-dasharray:9.2976,6.1984;} #svg_help_product_8 .st49{fill:none;stroke:#000000;stroke-width:3;stroke-linecap:round;stroke-linejoin:round;stroke-dasharray:10.3174,6.8783;} #svg_help_product_8 .st50{fill:none;stroke:#000000;stroke-width:3;stroke-linecap:round;stroke-linejoin:round;stroke-dasharray:9.2943,6.1962;} #svg_help_product_8 .st51{fill:none;stroke:#000000;stroke-width:3;stroke-linecap:round;stroke-linejoin:round;stroke-dasharray:9.552,6.368;} #svg_help_product_8 .st52{fill:none;stroke:#000000;stroke-width:3;stroke-linecap:round;stroke-linejoin:round;stroke-dasharray:10.171,6.7807;} #svg_help_product_8 .st53{fill:none;stroke:#000000;stroke-width:3;stroke-linecap:round;stroke-linejoin:round;stroke-dasharray:9.2766,6.1844;} #svg_help_product_8 .st54{fill:none;stroke:#000000;stroke-width:3;stroke-linecap:round;stroke-linejoin:round;stroke-dasharray:9.7099,6.4732;} #svg_help_product_8 .st55{fill:none;stroke:#000000;stroke-width:3;stroke-linecap:round;stroke-linejoin:round;stroke-dasharray:12.4608,8.3072;} #svg_help_product_8 .st56{fill:none;stroke:#000000;stroke-width:3;stroke-linecap:round;stroke-linejoin:round;stroke-dasharray:12.2348,8.1565;} #svg_help_product_8 .st57{fill:none;stroke:#000000;stroke-width:2.6091;stroke-linecap:round;stroke-linejoin:round;} #svg_help_product_8 .st58{fill:none;stroke:#000000;stroke-width:2.6091;stroke-linecap:round;stroke-linejoin:round;stroke-dasharray:10.4621,6.9747;} #svg_help_product_8 .st59{fill:none;stroke:#000000;stroke-width:2.6091;stroke-linecap:round;stroke-linejoin:round;stroke-dasharray:10.2553,6.8369;} #svg_help_product_8 .st60{fill:none;stroke:#000000;stroke-width:2.6091;stroke-linecap:round;stroke-linejoin:round;stroke-dasharray:11.5547,7.7031;} #svg_help_product_8 .st61{fill:none;stroke:#000000;stroke-width:2.6091;stroke-linecap:round;stroke-linejoin:round;stroke-miterlimit:10;stroke-dasharray:10.4365,6.9577;} #svg_help_product_8 .st62{fill:none;stroke:#000000;stroke-width:2.609;stroke-linecap:round;stroke-linejoin:round;} #svg_help_product_8 .st63{fill:none;stroke:#000000;stroke-width:2.609;stroke-linecap:round;stroke-linejoin:round;stroke-dasharray:10.4419,6.9613;} #svg_help_product_8 .st64{fill:none;stroke:#000000;stroke-width:2.609;stroke-linecap:round;stroke-linejoin:round;stroke-dasharray:10.6959,7.1306;} #svg_help_product_8 .st65{fill:none;stroke:#000000;stroke-width:2.609;stroke-linecap:round;stroke-linejoin:round;stroke-dasharray:11.235,7.49;} #svg_help_product_8 .st66{fill:none;stroke:#000000;stroke-width:2.609;stroke-linecap:round;stroke-linejoin:round;stroke-dasharray:10.6932,7.1288;} #svg_help_product_8 .st67{fill:none;stroke:#000000;stroke-width:2.609;stroke-linecap:round;stroke-linejoin:round;stroke-dasharray:10.3839,6.9226;} #svg_help_product_8 .st68{fill:none;stroke:#000000;stroke-width:2.609;stroke-linecap:round;stroke-linejoin:round;stroke-dasharray:10.7085,7.139;} #svg_help_product_8 .st69{fill:none;stroke:#000000;stroke-width:2.609;stroke-linecap:round;stroke-linejoin:round;stroke-dasharray:10.4372,6.9581;} #svg_help_product_8 .st70{fill:none;stroke:#000000;stroke-width:2.609;stroke-linecap:round;stroke-linejoin:round;stroke-dasharray:10.4655,6.977;} #svg_help_product_8 .st71{fill:none;stroke:#000000;stroke-width:2.609;stroke-linecap:round;stroke-linejoin:round;stroke-dasharray:10.1171,6.7447;} #svg_help_product_8 .st72{fill:none;stroke:#000000;stroke-width:2.609;stroke-linecap:round;stroke-linejoin:round;stroke-miterlimit:10;stroke-dasharray:10.4365,6.9577;} #svg_help_product_8 .st73{fill:none;stroke:#000000;stroke-width:2.3394;stroke-linecap:round;stroke-linejoin:round;stroke-miterlimit:10;stroke-dasharray:9.3577,6.2385;} #svg_help_product_8 .st74{fill:none;stroke:#000000;stroke-width:3;stroke-linecap:round;stroke-linejoin:round;stroke-dasharray:13.9844,9.3229;} #svg_help_product_8 .st75{fill:none;stroke:#000000;stroke-width:3;stroke-linecap:round;stroke-linejoin:round;stroke-dasharray:11.8721,7.9147;} #svg_help_product_8 .st76{fill:none;stroke:#000000;stroke-width:3;stroke-linecap:round;stroke-linejoin:round;stroke-dasharray:11.8454,7.8969;} #svg_help_product_8 .st77{fill:none;stroke:#000000;stroke-width:3;stroke-linecap:round;stroke-linejoin:round;stroke-dasharray:12.0674,8.0449;} #svg_help_product_8 .st78{fill:none;stroke:#000000;stroke-width:3;stroke-linecap:round;stroke-linejoin:round;stroke-dasharray:10.4196,6.9464;} #svg_help_product_8 .st79{fill:none;stroke:#000000;stroke-width:3;stroke-linecap:round;stroke-linejoin:round;stroke-dasharray:12.5054,8.3369;} #svg_help_product_8 .st80{fill:none;stroke:#000000;stroke-width:3;stroke-linecap:round;stroke-linejoin:round;stroke-dasharray:11.5784,7.7189;}
  </style>
  <path class="st0" d="M0 0h350v416.5H0z"/>
  <path class="st1" d="M317.7 104.2l-28.4-28.9c-5.6-5.6-15.7-5.6-21.3 0l-64.5 64.5h-1c-2-.5-4.6-1-6.6-1.5-.5 0-1.5 0-2-.5-1 0-2 0-3.6-.5h-5.5c-16.8 0-32.5 5.6-45.2 16.2-2 1.5-3.6 3-5.1 4.6s-3 3-4.1 4.6c-.5.5-.5 1-1 1.5-1 1.5-2 2.5-3 4.1-.5.5-.5 1-1 1-1 1.5-2 3-2.5 4.6-.5.5-.5 1.5-1 2-.5 1.5-1 2.5-2 4.1-.5 1-.5 1.5-1 2.5-.5 1.5-1 3-1.5 4.1 0 .5-.5 1.5-.5 2-.5 1.5-1 3-1 4.6 0 .5 0 1-.5 1.5-.5 1.5-.5 3.6-1 5.1v2c0 2-.5 4.1-.5 5.6v6.1c0 1 0 2 .5 2.5 0 1 .5 2 .5 2.5.5 2 1 4.6 1.5 6.6v1l-63.5 64.5c-3 3-4.6 7.1-4.6 11.2s1.5 8.1 4.6 10.7l28.4 28.9c3 2.5 6.6 4.1 10.7 4.1s8.1-1.5 10.7-4.6l64-64h.5c2.5.5 4.6 1 7.1 1.5h1.5c1 0 2.5.5 3.6.5h5c18.8 0 36.6-7.6 50.3-20.8 1.5-1.5 3-3 4.1-4.6.5-.5.5-1 1-1.5 1-1.5 2-3 3-4.6 0-.5.5-.5.5-1 1-1.5 2-3 2.5-4.6.5-.5.5-1.5 1-2 .5-1.5 1.5-2.5 2-4.1.5-.5.5-1.5 1-2 .5-1.5 1-3 1.5-4.6 0-.5.5-1.5.5-2 .5-1.5 1-3 1-5.1v-1c.5-2 .5-3.6 1-5.6v-1.5c0-2 .5-4.1.5-6.1v-1-5.1c0-1 0-1.5-.5-2.5 0-1-.5-2-.5-3-.5-2-.5-4.1-1.5-6.1v-1l64-64c8-5.1 8-14.8 1.9-20.9z"/>
  <path class="st26" d="M192 88.3c-5.2 0-9.5-4.2-9.6-9.5v-.1c0-5.7 4.6-10.4 10.3-10.4 1.4 0 2.8.3 4 .8 2.6-3.3 6.7-5.4 11.3-5.4 6.4 0 11.7 4.1 13.7 9.9 1.1-.6 2.4-.9 3.8-.9 4.5 0 8.2 3.7 8.2 8.3 0 4-3.3 7.3-7.4 7.3H192z"/>
  <path class="st1" d="M168.6 100.6c-2.6 0-4.8-2.1-4.8-4.7 0-2.9 2.3-5.2 5.2-5.2.7 0 1.4.1 2 .4 1.3-1.7 3.4-2.7 5.6-2.7 3.2 0 5.9 2.1 6.8 4.9.6-.3 1.2-.5 1.9-.5 2.3 0 4.1 1.9 4.1 4.1 0 2-1.7 3.7-3.7 3.7h-17.1z"/>
  <path class="st26" d="M222 345.4c2.8 0 5-2.2 5-5 0-3-2.4-5.5-5.4-5.5-.7 0-1.5.2-2.1.4-1.4-1.7-3.5-2.9-5.9-2.9-3.3 0-6.2 2.2-7.2 5.2-.6-.3-1.3-.5-2-.5-2.4 0-4.3 1.9-4.3 4.3 0 2.1 1.7 3.8 3.9 3.8h18z"/>
  <path class="st1" d="M184.3 328.5c-3.7 0-6.7-3-6.7-6.7 0-4 3.2-7.3 7.2-7.3 1 0 1.9.2 2.8.6 1.9-2.3 4.7-3.8 7.9-3.8 4.5 0 8.3 2.9 9.6 6.9.8-.4 1.7-.7 2.7-.7 3.2 0 5.8 2.6 5.8 5.8 0 2.8-2.3 5.1-5.2 5.1h-24.1z"/>
  <path class="st27" d="M197.8 109.5h-33.4M157.8 109.5h-5.7M143.3 109.5H85.4M291.9 299h-92.4M192.9 299h-5.7M178.4 299h-29.2M185.4 119h-33.3M205.9 290.3h-33.4M274.4 307.1h-29.2"/>
  <path class="st25" d="M175.1 157.6c-13.7 0-26.4 5.1-36.1 14.7-19.8 19.8-19.8 51.8 0 71.6 9.6 9.6 22.3 14.7 36.1 14.7s26.4-5.1 36.1-14.7c19.8-19.8 19.8-51.8 0-71.6-9.7-9.7-22.4-14.7-36.1-14.7zm132.5-53.4l-28.4-28.9c-5.6-5.6-15.7-5.6-21.3 0l-64.5 64.5h-1c-2-.5-4.6-1-6.6-1.5-.5 0-1.5 0-2-.5-1 0-2 0-3.6-.5h-5.5c-16.8 0-32.5 5.6-45.2 16.2-2 1.5-3.6 3-5.1 4.6-1.5 1.5-3 3-4.1 4.6-.5.5-.5 1-1 1.5-1 1.5-2 2.5-3 4.1-.5.5-.5 1-1 1-1 1.5-2 3-2.5 4.6-.5.5-.5 1.5-1 2-.5 1.5-1 2.5-2 4.1-.5 1-.5 1.5-1 2.5-.5 1.5-1 3-1.5 4.1 0 .5-.5 1.5-.5 2-.5 1.5-1 3-1 4.6 0 .5 0 1-.5 1.5-.5 1.5-.5 3.6-1 5.1v2c0 2-.5 4.1-.5 5.6v6.1c0 1 0 2 .5 2.5 0 1 .5 2 .5 2.5.5 2 1 4.6 1.5 6.6v1l-63.5 64.5c-3 3-4.6 7.1-4.6 11.2s1.5 8.1 4.6 10.7L71 341.4c3 2.5 6.6 4.1 10.7 4.1s8.1-1.5 10.7-4.6l64-64h.5c2.5.5 4.6 1 7.1 1.5h1.5c1 0 2.5.5 3.6.5h5c18.8 0 36.6-7.6 50.3-20.8 1.5-1.5 3-3 4.1-4.6.5-.5.5-1 1-1.5 1-1.5 2-3 3-4.6 0-.5.5-.5.5-1 1-1.5 2-3 2.5-4.6.5-.5.5-1.5 1-2 .5-1.5 1.5-2.5 2-4.1.5-.5.5-1.5 1-2 .5-1.5 1-3 1.5-4.6 0-.5.5-1.5.5-2 .5-1.5 1-3 1-5.1v-1c.5-2 .5-3.6 1-5.6v-1.5c0-2 .5-4.1.5-6.1v-1-5.1c0-1 0-1.5-.5-2.5 0-1-.5-2-.5-3-.5-2-.5-4.1-1.5-6.1v-1l64-64c8.2-5.1 8.2-14.8 2.1-20.9zm0 0l-28.4-28.9c-5.6-5.6-15.7-5.6-21.3 0l-64.5 64.5h-1c-2-.5-4.6-1-6.6-1.5-.5 0-1.5 0-2-.5-1 0-2 0-3.6-.5h-5.5c-16.8 0-32.5 5.6-45.2 16.2-2 1.5-3.6 3-5.1 4.6-1.5 1.5-3 3-4.1 4.6-.5.5-.5 1-1 1.5-1 1.5-2 2.5-3 4.1-.5.5-.5 1-1 1-1 1.5-2 3-2.5 4.6-.5.5-.5 1.5-1 2-.5 1.5-1 2.5-2 4.1-.5 1-.5 1.5-1 2.5-.5 1.5-1 3-1.5 4.1 0 .5-.5 1.5-.5 2-.5 1.5-1 3-1 4.6 0 .5 0 1-.5 1.5-.5 1.5-.5 3.6-1 5.1v2c0 2-.5 4.1-.5 5.6v6.1c0 1 0 2 .5 2.5 0 1 .5 2 .5 2.5.5 2 1 4.6 1.5 6.6v1l-63.5 64.5c-3 3-4.6 7.1-4.6 11.2s1.5 8.1 4.6 10.7L71 341.4c3 2.5 6.6 4.1 10.7 4.1s8.1-1.5 10.7-4.6l64-64h.5c2.5.5 4.6 1 7.1 1.5h1.5c1 0 2.5.5 3.6.5h5c18.8 0 36.6-7.6 50.3-20.8 1.5-1.5 3-3 4.1-4.6.5-.5.5-1 1-1.5 1-1.5 2-3 3-4.6 0-.5.5-.5.5-1 1-1.5 2-3 2.5-4.6.5-.5.5-1.5 1-2 .5-1.5 1.5-2.5 2-4.1.5-.5.5-1.5 1-2 .5-1.5 1-3 1.5-4.6 0-.5.5-1.5.5-2 .5-1.5 1-3 1-5.1v-1c.5-2 .5-3.6 1-5.6v-1.5c0-2 .5-4.1.5-6.1v-1-5.1c0-1 0-1.5-.5-2.5 0-1-.5-2-.5-3-.5-2-.5-4.1-1.5-6.1v-1l64-64c8.2-5.1 8.2-14.8 2.1-20.9zM93.9 325.6v-41.1h-31m56.4 15.7v-41.1h-31M231 116.4v36.1h35.5M256.4 91v36.1h35.5M170 188v25.4h29.5"/>
</svg>
