<svg id="svg_help_product_6" xmlns="http://www.w3.org/2000/svg" viewBox="0 0 350 416.5">
  <style>
    #svg_help_product_6 .st0{fill:#F2F2F2;} #svg_help_product_6 .st1{fill:#D7EDFF;} #svg_help_product_6 .st2{fill:#BC1200;} #svg_help_product_6 .st3{fill:#00E582;stroke:#000000;stroke-width:2;stroke-miterlimit:10;} #svg_help_product_6 .st4{fill:#6C6C6C;} #svg_help_product_6 .st5{fill:#00E582;} #svg_help_product_6 .st6{stroke:#000000;stroke-width:3;stroke-miterlimit:10;} #svg_help_product_6 .st7{fill:#AFAFAF;} #svg_help_product_6 .st8{fill:#DBCCA9;stroke:#000000;stroke-width:3;stroke-miterlimit:10;} #svg_help_product_6 .st9{fill:#E42320;} #svg_help_product_6 .st10{fill:#FFFFFF;} #svg_help_product_6 .st11{fill:#FFE400;} #svg_help_product_6 .st12{fill:#0080FF;} #svg_help_product_6 .st13{fill:#0067BC;} #svg_help_product_6 .st14{fill:#FFA100;} #svg_help_product_6 .st15{stroke:#000000;stroke-width:2;stroke-miterlimit:10;} #svg_help_product_6 .st16{fill:#444444;stroke:#000000;stroke-width:2;stroke-miterlimit:10;} #svg_help_product_6 .st17{fill:#C1003C;} #svg_help_product_6 .st18{fill:#FC004E;} #svg_help_product_6 .st19{fill:#8B00BF;} #svg_help_product_6 .st20{fill:#A100FF;} #svg_help_product_6 .st21{fill:none;stroke:#000000;stroke-width:3;stroke-linecap:round;stroke-linejoin:round;} #svg_help_product_6 .st22{fill:none;stroke:#000000;stroke-width:3;stroke-linecap:round;stroke-linejoin:round;stroke-dasharray:14.1826,9.4551;} #svg_help_product_6 .st23{fill:none;stroke:#000000;stroke-width:3;stroke-linecap:round;stroke-linejoin:round;stroke-dasharray:14.175,9.45;} #svg_help_product_6 .st24{fill:none;stroke:#000000;stroke-width:3;stroke-linecap:round;stroke-linejoin:round;stroke-dasharray:12.0832,8.0555;} #svg_help_product_6 .st25{fill:none;stroke:#000000;stroke-width:3;stroke-linecap:round;stroke-linejoin:round;stroke-miterlimit:10;stroke-dasharray:12,8;} #svg_help_product_6 .st26{fill:#E5E5E5;} #svg_help_product_6 .st27{fill:none;stroke:#E5E5E5;stroke-width:3;stroke-linecap:round;stroke-linejoin:round;stroke-miterlimit:10;} #svg_help_product_6 .st28{fill:#1D1E1C;} #svg_help_product_6 .st29{fill:#0093C6;} #svg_help_product_6 .st30{fill:url(#SVGID_1_);} #svg_help_product_6 .st31{fill:url(#SVGID_2_);} #svg_help_product_6 .st32{fill:#6DFCB5;} #svg_help_product_6 .st33{fill:none;stroke:#000000;stroke-width:3;stroke-miterlimit:10;} #svg_help_product_6 .st34{fill:#E0D500;} #svg_help_product_6 .st35{fill:none;stroke:#000000;stroke-width:3;stroke-linecap:round;stroke-linejoin:round;stroke-miterlimit:10;} #svg_help_product_6 .st36{opacity:0.25;} #svg_help_product_6 .st37{fill:none;stroke:#000000;stroke-width:2;stroke-miterlimit:10;} #svg_help_product_6 .st38{fill:none;stroke:#000000;stroke-width:3;stroke-linecap:round;stroke-linejoin:round;stroke-dasharray:14.3163,9.5442;} #svg_help_product_6 .st39{fill:none;stroke:#000000;stroke-width:3;stroke-linecap:round;stroke-linejoin:round;stroke-dasharray:14.636,9.7574;} #svg_help_product_6 .st40{fill:none;stroke:#000000;stroke-width:3;stroke-linecap:round;stroke-linejoin:round;stroke-dasharray:13.8351,9.2234;} #svg_help_product_6 .st41{fill:none;stroke:#000000;stroke-width:3;stroke-linecap:round;stroke-linejoin:round;stroke-dasharray:14.6007,9.7338;} #svg_help_product_6 .st42{fill:none;stroke:#000000;stroke-width:3;stroke-linecap:round;stroke-linejoin:round;stroke-dasharray:14.8718,9.9145;} #svg_help_product_6 .st43{fill:none;stroke:#000000;stroke-width:3;stroke-linecap:round;stroke-linejoin:round;stroke-dasharray:13.7735,9.1823;} #svg_help_product_6 .st44{fill:none;stroke:#000000;stroke-width:3;stroke-linecap:round;stroke-linejoin:round;stroke-dasharray:14.6853,9.7902;} #svg_help_product_6 .st45{fill:none;stroke:#000000;stroke-width:3;stroke-linecap:round;stroke-linejoin:round;stroke-dasharray:14.3237,9.5491;} #svg_help_product_6 .st46{fill:none;stroke:#000000;stroke-width:3;stroke-linecap:round;stroke-linejoin:round;stroke-dasharray:12.437,8.2913;} #svg_help_product_6 .st47{fill:none;stroke:#000000;stroke-width:3;stroke-linecap:round;stroke-linejoin:round;stroke-dasharray:9.6266,6.4178;} #svg_help_product_6 .st48{fill:none;stroke:#000000;stroke-width:3;stroke-linecap:round;stroke-linejoin:round;stroke-dasharray:9.2976,6.1984;} #svg_help_product_6 .st49{fill:none;stroke:#000000;stroke-width:3;stroke-linecap:round;stroke-linejoin:round;stroke-dasharray:10.3174,6.8783;} #svg_help_product_6 .st50{fill:none;stroke:#000000;stroke-width:3;stroke-linecap:round;stroke-linejoin:round;stroke-dasharray:9.2943,6.1962;} #svg_help_product_6 .st51{fill:none;stroke:#000000;stroke-width:3;stroke-linecap:round;stroke-linejoin:round;stroke-dasharray:9.552,6.368;} #svg_help_product_6 .st52{fill:none;stroke:#000000;stroke-width:3;stroke-linecap:round;stroke-linejoin:round;stroke-dasharray:10.171,6.7807;} #svg_help_product_6 .st53{fill:none;stroke:#000000;stroke-width:3;stroke-linecap:round;stroke-linejoin:round;stroke-dasharray:9.2766,6.1844;} #svg_help_product_6 .st54{fill:none;stroke:#000000;stroke-width:3;stroke-linecap:round;stroke-linejoin:round;stroke-dasharray:9.7099,6.4732;} #svg_help_product_6 .st55{fill:none;stroke:#000000;stroke-width:3;stroke-linecap:round;stroke-linejoin:round;stroke-dasharray:12.4608,8.3072;} #svg_help_product_6 .st56{fill:none;stroke:#000000;stroke-width:3;stroke-linecap:round;stroke-linejoin:round;stroke-dasharray:12.2348,8.1565;} #svg_help_product_6 .st57{fill:none;stroke:#000000;stroke-width:2.6091;stroke-linecap:round;stroke-linejoin:round;} #svg_help_product_6 .st58{fill:none;stroke:#000000;stroke-width:2.6091;stroke-linecap:round;stroke-linejoin:round;stroke-dasharray:10.4621,6.9747;} #svg_help_product_6 .st59{fill:none;stroke:#000000;stroke-width:2.6091;stroke-linecap:round;stroke-linejoin:round;stroke-dasharray:10.2553,6.8369;} #svg_help_product_6 .st60{fill:none;stroke:#000000;stroke-width:2.6091;stroke-linecap:round;stroke-linejoin:round;stroke-dasharray:11.5547,7.7031;} #svg_help_product_6 .st61{fill:none;stroke:#000000;stroke-width:2.6091;stroke-linecap:round;stroke-linejoin:round;stroke-miterlimit:10;stroke-dasharray:10.4365,6.9577;} #svg_help_product_6 .st62{fill:none;stroke:#000000;stroke-width:2.609;stroke-linecap:round;stroke-linejoin:round;} #svg_help_product_6 .st63{fill:none;stroke:#000000;stroke-width:2.609;stroke-linecap:round;stroke-linejoin:round;stroke-dasharray:10.4419,6.9613;} #svg_help_product_6 .st64{fill:none;stroke:#000000;stroke-width:2.609;stroke-linecap:round;stroke-linejoin:round;stroke-dasharray:10.6959,7.1306;} #svg_help_product_6 .st65{fill:none;stroke:#000000;stroke-width:2.609;stroke-linecap:round;stroke-linejoin:round;stroke-dasharray:11.235,7.49;} #svg_help_product_6 .st66{fill:none;stroke:#000000;stroke-width:2.609;stroke-linecap:round;stroke-linejoin:round;stroke-dasharray:10.6932,7.1288;} #svg_help_product_6 .st67{fill:none;stroke:#000000;stroke-width:2.609;stroke-linecap:round;stroke-linejoin:round;stroke-dasharray:10.3839,6.9226;} #svg_help_product_6 .st68{fill:none;stroke:#000000;stroke-width:2.609;stroke-linecap:round;stroke-linejoin:round;stroke-dasharray:10.7085,7.139;} #svg_help_product_6 .st69{fill:none;stroke:#000000;stroke-width:2.609;stroke-linecap:round;stroke-linejoin:round;stroke-dasharray:10.4372,6.9581;} #svg_help_product_6 .st70{fill:none;stroke:#000000;stroke-width:2.609;stroke-linecap:round;stroke-linejoin:round;stroke-dasharray:10.4655,6.977;} #svg_help_product_6 .st71{fill:none;stroke:#000000;stroke-width:2.609;stroke-linecap:round;stroke-linejoin:round;stroke-dasharray:10.1171,6.7447;} #svg_help_product_6 .st72{fill:none;stroke:#000000;stroke-width:2.609;stroke-linecap:round;stroke-linejoin:round;stroke-miterlimit:10;stroke-dasharray:10.4365,6.9577;} #svg_help_product_6 .st73{fill:none;stroke:#000000;stroke-width:2.3394;stroke-linecap:round;stroke-linejoin:round;stroke-miterlimit:10;stroke-dasharray:9.3577,6.2385;} #svg_help_product_6 .st74{fill:none;stroke:#000000;stroke-width:3;stroke-linecap:round;stroke-linejoin:round;stroke-dasharray:13.9844,9.3229;} #svg_help_product_6 .st75{fill:none;stroke:#000000;stroke-width:3;stroke-linecap:round;stroke-linejoin:round;stroke-dasharray:11.8721,7.9147;} #svg_help_product_6 .st76{fill:none;stroke:#000000;stroke-width:3;stroke-linecap:round;stroke-linejoin:round;stroke-dasharray:11.8454,7.8969;} #svg_help_product_6 .st77{fill:none;stroke:#000000;stroke-width:3;stroke-linecap:round;stroke-linejoin:round;stroke-dasharray:12.0674,8.0449;} #svg_help_product_6 .st78{fill:none;stroke:#000000;stroke-width:3;stroke-linecap:round;stroke-linejoin:round;stroke-dasharray:10.4196,6.9464;} #svg_help_product_6 .st79{fill:none;stroke:#000000;stroke-width:3;stroke-linecap:round;stroke-linejoin:round;stroke-dasharray:12.5054,8.3369;} #svg_help_product_6 .st80{fill:none;stroke:#000000;stroke-width:3;stroke-linecap:round;stroke-linejoin:round;stroke-dasharray:11.5784,7.7189;}
  </style>
  <path class="st0" d="M0 1h350v416.5H0z"/>
  <path class="st26" d="M81.6 92.6c-5.2 0-9.5-4.2-9.6-9.5V83c0-5.7 4.6-10.4 10.3-10.4 1.4 0 2.8.3 4 .8C89 70.1 93.1 68 97.7 68c6.4 0 11.7 4.1 13.7 9.9 1.1-.6 2.4-.9 3.8-.9 4.5 0 8.2 3.7 8.2 8.3 0 4-3.3 7.3-7.4 7.3H81.6z"/>
  <path class="st1" d="M58.2 104.9c-2.6 0-4.8-2.1-4.8-4.7 0-2.9 2.3-5.2 5.2-5.2.7 0 1.4.1 2 .4 1.3-1.7 3.4-2.7 5.6-2.7 3.2 0 5.9 2.1 6.8 4.9.6-.3 1.2-.5 1.9-.5 2.3 0 4.1 1.9 4.1 4.1 0 2-1.7 3.7-3.7 3.7H58.2z"/>
  <path class="st26" d="M306.4 129.7c2.8 0 5-2.2 5-5 0-3-2.4-5.5-5.4-5.5-.7 0-1.5.2-2.1.4-1.4-1.7-3.5-2.9-5.9-2.9-3.3 0-6.2 2.2-7.2 5.2-.6-.3-1.3-.5-2-.5-2.4 0-4.3 1.9-4.3 4.3 0 2.1 1.7 3.8 3.9 3.8h18z"/>
  <path class="st1" d="M268.6 112.8c-3.7 0-6.7-3-6.7-6.7 0-4 3.2-7.3 7.2-7.3 1 0 1.9.2 2.8.6 1.9-2.3 4.7-3.8 7.9-3.8 4.5 0 8.3 2.9 9.6 6.9.8-.4 1.7-.7 2.7-.7 3.2 0 5.8 2.6 5.8 5.8 0 2.8-2.3 5.1-5.2 5.1h-24.1z"/>
  <path class="st27" d="M87.4 113.8H54M47.4 113.8h-5.7M32.9 113.8H19.7M334.3 83.3h-50.4M277.2 83.3h-5.6M262.8 83.3h-77.6M75 123.3H41.7M290.3 74.7h-33.4M202.7 92.6h-33.4"/>
  <g>
    <path class="st1" d="M106.7 106.3v26.5l-21 212.7c-.1 1.5 1.2 3 2.7 3h56.9c1.2 0 2.3-1 2.6-2.1l32.6-147.6 32.6 147.6c.3 1.2 1.4 2.1 2.7 2.1h56.8c1.5 0 2.9-1.4 2.7-3l-20.8-212.2v-27c0-1.4-1.3-2.7-2.8-2.7H109.5c-1.8 0-2.8 1.7-2.8 2.7z"/>
    <path class="st57" d="M172.4 203.9l1.2-5.1 1.1 5.1"/>
    <path class="st58" d="M176.2 210.7l29.9 135.7c.3 1.2 1.4 2.1 2.7 2.1h56.8c1.5 0 2.9-1.4 2.7-3l-20.8-212.2v-27c0-1.4-1.3-2.7-2.8-2.7H102.5c-1.6 0-2.7 1.7-2.7 2.7v26.5l-21 212.7c-.1 1.5 1.2 3 2.7 3h56.9c1.2 0 2.3-1 2.6-2.1l30.8-139.1"/>
    <path class="st57" d="M242 130h-5.2"/>
    <path class="st59" d="M230 130H113.7"/>
    <path class="st57" d="M110.3 130h-5.2"/>
    <g>
      <path class="st57" d="M178.2 135.6v5.2"/>
      <path class="st60" d="M178.2 148.5V180c0 1.1 0 2.1-.1 3.1"/>
      <path class="st57" d="M177.9 187c-.3 2.5-.8 4.4-1.7 4.8"/>
    </g>
  </g>
  <path class="st61" d="M88.2 333.1h48.4M211.9 333.1h48.3"/>
</svg>
