<svg id="svg_help_product_5" xmlns="http://www.w3.org/2000/svg" viewBox="0 0 350 416.5">
  <style>
    #svg_help_product_5 .st0{fill:#F2F2F2;} #svg_help_product_5 .st1{fill:#D7EDFF;} #svg_help_product_5 .st2{fill:#BC1200;} #svg_help_product_5 .st3{fill:#00E582;stroke:#000000;stroke-width:2;stroke-miterlimit:10;} #svg_help_product_5 .st4{fill:#6C6C6C;} #svg_help_product_5 .st5{fill:#00E582;} #svg_help_product_5 .st6{stroke:#000000;stroke-width:3;stroke-miterlimit:10;} #svg_help_product_5 .st7{fill:#AFAFAF;} #svg_help_product_5 .st8{fill:#DBCCA9;stroke:#000000;stroke-width:3;stroke-miterlimit:10;} #svg_help_product_5 .st9{fill:#E42320;} #svg_help_product_5 .st10{fill:#FFFFFF;} #svg_help_product_5 .st11{fill:#FFE400;} #svg_help_product_5 .st12{fill:#0080FF;} #svg_help_product_5 .st13{fill:#0067BC;} #svg_help_product_5 .st14{fill:#FFA100;} #svg_help_product_5 .st15{stroke:#000000;stroke-width:2;stroke-miterlimit:10;} #svg_help_product_5 .st16{fill:#444444;stroke:#000000;stroke-width:2;stroke-miterlimit:10;} #svg_help_product_5 .st17{fill:#C1003C;} #svg_help_product_5 .st18{fill:#FC004E;} #svg_help_product_5 .st19{fill:#8B00BF;} #svg_help_product_5 .st20{fill:#A100FF;} #svg_help_product_5 .st21{fill:none;stroke:#000000;stroke-width:3;stroke-linecap:round;stroke-linejoin:round;} #svg_help_product_5 .st22{fill:none;stroke:#000000;stroke-width:3;stroke-linecap:round;stroke-linejoin:round;stroke-dasharray:14.1826,9.4551;} #svg_help_product_5 .st23{fill:none;stroke:#000000;stroke-width:3;stroke-linecap:round;stroke-linejoin:round;stroke-dasharray:14.175,9.45;} #svg_help_product_5 .st24{fill:none;stroke:#000000;stroke-width:3;stroke-linecap:round;stroke-linejoin:round;stroke-dasharray:12.0832,8.0555;} #svg_help_product_5 .st25{fill:none;stroke:#000000;stroke-width:3;stroke-linecap:round;stroke-linejoin:round;stroke-miterlimit:10;stroke-dasharray:12,8;} #svg_help_product_5 .st26{fill:#E5E5E5;} #svg_help_product_5 .st27{fill:none;stroke:#E5E5E5;stroke-width:3;stroke-linecap:round;stroke-linejoin:round;stroke-miterlimit:10;} #svg_help_product_5 .st28{fill:#1D1E1C;} #svg_help_product_5 .st29{fill:#0093C6;} #svg_help_product_5 .st30{fill:url(#SVGID_1_);} #svg_help_product_5 .st31{fill:url(#SVGID_2_);} #svg_help_product_5 .st32{fill:#6DFCB5;} #svg_help_product_5 .st33{fill:none;stroke:#000000;stroke-width:3;stroke-miterlimit:10;} #svg_help_product_5 .st34{fill:#E0D500;} #svg_help_product_5 .st35{fill:none;stroke:#000000;stroke-width:3;stroke-linecap:round;stroke-linejoin:round;stroke-miterlimit:10;} #svg_help_product_5 .st36{opacity:0.25;} #svg_help_product_5 .st37{fill:none;stroke:#000000;stroke-width:2;stroke-miterlimit:10;} #svg_help_product_5 .st38{fill:none;stroke:#000000;stroke-width:3;stroke-linecap:round;stroke-linejoin:round;stroke-dasharray:14.3163,9.5442;} #svg_help_product_5 .st39{fill:none;stroke:#000000;stroke-width:3;stroke-linecap:round;stroke-linejoin:round;stroke-dasharray:14.636,9.7574;} #svg_help_product_5 .st40{fill:none;stroke:#000000;stroke-width:3;stroke-linecap:round;stroke-linejoin:round;stroke-dasharray:13.8351,9.2234;} #svg_help_product_5 .st41{fill:none;stroke:#000000;stroke-width:3;stroke-linecap:round;stroke-linejoin:round;stroke-dasharray:14.6007,9.7338;} #svg_help_product_5 .st42{fill:none;stroke:#000000;stroke-width:3;stroke-linecap:round;stroke-linejoin:round;stroke-dasharray:14.8718,9.9145;} #svg_help_product_5 .st43{fill:none;stroke:#000000;stroke-width:3;stroke-linecap:round;stroke-linejoin:round;stroke-dasharray:13.7735,9.1823;} #svg_help_product_5 .st44{fill:none;stroke:#000000;stroke-width:3;stroke-linecap:round;stroke-linejoin:round;stroke-dasharray:14.6853,9.7902;} #svg_help_product_5 .st45{fill:none;stroke:#000000;stroke-width:3;stroke-linecap:round;stroke-linejoin:round;stroke-dasharray:14.3237,9.5491;} #svg_help_product_5 .st46{fill:none;stroke:#000000;stroke-width:3;stroke-linecap:round;stroke-linejoin:round;stroke-dasharray:12.437,8.2913;} #svg_help_product_5 .st47{fill:none;stroke:#000000;stroke-width:3;stroke-linecap:round;stroke-linejoin:round;stroke-dasharray:9.6266,6.4178;} #svg_help_product_5 .st48{fill:none;stroke:#000000;stroke-width:3;stroke-linecap:round;stroke-linejoin:round;stroke-dasharray:9.2976,6.1984;} #svg_help_product_5 .st49{fill:none;stroke:#000000;stroke-width:3;stroke-linecap:round;stroke-linejoin:round;stroke-dasharray:10.3174,6.8783;} #svg_help_product_5 .st50{fill:none;stroke:#000000;stroke-width:3;stroke-linecap:round;stroke-linejoin:round;stroke-dasharray:9.2943,6.1962;} #svg_help_product_5 .st51{fill:none;stroke:#000000;stroke-width:3;stroke-linecap:round;stroke-linejoin:round;stroke-dasharray:9.552,6.368;} #svg_help_product_5 .st52{fill:none;stroke:#000000;stroke-width:3;stroke-linecap:round;stroke-linejoin:round;stroke-dasharray:10.171,6.7807;} #svg_help_product_5 .st53{fill:none;stroke:#000000;stroke-width:3;stroke-linecap:round;stroke-linejoin:round;stroke-dasharray:9.2766,6.1844;} #svg_help_product_5 .st54{fill:none;stroke:#000000;stroke-width:3;stroke-linecap:round;stroke-linejoin:round;stroke-dasharray:9.7099,6.4732;} #svg_help_product_5 .st55{fill:none;stroke:#000000;stroke-width:3;stroke-linecap:round;stroke-linejoin:round;stroke-dasharray:12.4608,8.3072;} #svg_help_product_5 .st56{fill:none;stroke:#000000;stroke-width:3;stroke-linecap:round;stroke-linejoin:round;stroke-dasharray:12.2348,8.1565;} #svg_help_product_5 .st57{fill:none;stroke:#000000;stroke-width:2.6091;stroke-linecap:round;stroke-linejoin:round;} #svg_help_product_5 .st58{fill:none;stroke:#000000;stroke-width:2.6091;stroke-linecap:round;stroke-linejoin:round;stroke-dasharray:10.4621,6.9747;} #svg_help_product_5 .st59{fill:none;stroke:#000000;stroke-width:2.6091;stroke-linecap:round;stroke-linejoin:round;stroke-dasharray:10.2553,6.8369;} #svg_help_product_5 .st60{fill:none;stroke:#000000;stroke-width:2.6091;stroke-linecap:round;stroke-linejoin:round;stroke-dasharray:11.5547,7.7031;} #svg_help_product_5 .st61{fill:none;stroke:#000000;stroke-width:2.6091;stroke-linecap:round;stroke-linejoin:round;stroke-miterlimit:10;stroke-dasharray:10.4365,6.9577;} #svg_help_product_5 .st62{fill:none;stroke:#000000;stroke-width:2.609;stroke-linecap:round;stroke-linejoin:round;} #svg_help_product_5 .st63{fill:none;stroke:#000000;stroke-width:2.609;stroke-linecap:round;stroke-linejoin:round;stroke-dasharray:10.4419,6.9613;} #svg_help_product_5 .st64{fill:none;stroke:#000000;stroke-width:2.609;stroke-linecap:round;stroke-linejoin:round;stroke-dasharray:10.6959,7.1306;} #svg_help_product_5 .st65{fill:none;stroke:#000000;stroke-width:2.609;stroke-linecap:round;stroke-linejoin:round;stroke-dasharray:11.235,7.49;} #svg_help_product_5 .st66{fill:none;stroke:#000000;stroke-width:2.609;stroke-linecap:round;stroke-linejoin:round;stroke-dasharray:10.6932,7.1288;} #svg_help_product_5 .st67{fill:none;stroke:#000000;stroke-width:2.609;stroke-linecap:round;stroke-linejoin:round;stroke-dasharray:10.3839,6.9226;} #svg_help_product_5 .st68{fill:none;stroke:#000000;stroke-width:2.609;stroke-linecap:round;stroke-linejoin:round;stroke-dasharray:10.7085,7.139;} #svg_help_product_5 .st69{fill:none;stroke:#000000;stroke-width:2.609;stroke-linecap:round;stroke-linejoin:round;stroke-dasharray:10.4372,6.9581;} #svg_help_product_5 .st70{fill:none;stroke:#000000;stroke-width:2.609;stroke-linecap:round;stroke-linejoin:round;stroke-dasharray:10.4655,6.977;} #svg_help_product_5 .st71{fill:none;stroke:#000000;stroke-width:2.609;stroke-linecap:round;stroke-linejoin:round;stroke-dasharray:10.1171,6.7447;} #svg_help_product_5 .st72{fill:none;stroke:#000000;stroke-width:2.609;stroke-linecap:round;stroke-linejoin:round;stroke-miterlimit:10;stroke-dasharray:10.4365,6.9577;} #svg_help_product_5 .st73{fill:none;stroke:#000000;stroke-width:2.3394;stroke-linecap:round;stroke-linejoin:round;stroke-miterlimit:10;stroke-dasharray:9.3577,6.2385;} #svg_help_product_5 .st74{fill:none;stroke:#000000;stroke-width:3;stroke-linecap:round;stroke-linejoin:round;stroke-dasharray:13.9844,9.3229;} #svg_help_product_5 .st75{fill:none;stroke:#000000;stroke-width:3;stroke-linecap:round;stroke-linejoin:round;stroke-dasharray:11.8721,7.9147;} #svg_help_product_5 .st76{fill:none;stroke:#000000;stroke-width:3;stroke-linecap:round;stroke-linejoin:round;stroke-dasharray:11.8454,7.8969;} #svg_help_product_5 .st77{fill:none;stroke:#000000;stroke-width:3;stroke-linecap:round;stroke-linejoin:round;stroke-dasharray:12.0674,8.0449;} #svg_help_product_5 .st78{fill:none;stroke:#000000;stroke-width:3;stroke-linecap:round;stroke-linejoin:round;stroke-dasharray:10.4196,6.9464;} #svg_help_product_5 .st79{fill:none;stroke:#000000;stroke-width:3;stroke-linecap:round;stroke-linejoin:round;stroke-dasharray:12.5054,8.3369;} #svg_help_product_5 .st80{fill:none;stroke:#000000;stroke-width:3;stroke-linecap:round;stroke-linejoin:round;stroke-dasharray:11.5784,7.7189;}
  </style>
  <path class="st0" d="M0 0h350v416.5H0z"/>
  <path class="st26" d="M63.5 104c-3.9 0-7.1-3.1-7.1-7 0-4.3 3.4-7.7 7.7-7.7 1.1 0 2.1.2 3 .6 2-2.5 5-4 8.4-4 4.7 0 8.7 3.1 10.2 7.3.8-.4 1.8-.7 2.8-.7 3.4 0 6.1 2.8 6.1 6.1 0 3-2.5 5.4-5.5 5.4H63.5zM191.2 309c3.4 0 6.2-2.8 6.2-6.2 0-3.8-3-6.8-6.7-6.8-.9 0-1.8.2-2.6.5-1.7-2.2-4.4-3.6-7.4-3.6-4.2 0-7.7 2.7-8.9 6.5-.7-.4-1.6-.6-2.5-.6-3 0-5.4 2.4-5.4 5.4 0 2.6 2.2 4.8 4.8 4.8h22.5z"/>
  <path class="st1" d="M47.5 120.2c-2.6 0-4.8-2.1-4.8-4.7 0-2.9 2.3-5.2 5.2-5.2.7 0 1.4.1 2 .4 1.3-1.7 3.4-2.7 5.6-2.7 3.2 0 5.9 2.1 6.8 4.9.6-.3 1.2-.5 1.9-.5 2.3 0 4.1 1.9 4.1 4.1 0 2-1.7 3.7-3.7 3.7H47.5zM192.4 147.3c-3.7 0-6.7-3-6.7-6.7 0-4 3.2-7.3 7.2-7.3 1 0 1.9.2 2.8.6 1.9-2.3 4.7-3.8 7.9-3.8 4.5 0 8.3 2.9 9.6 6.9.8-.4 1.7-.7 2.7-.7 3.2 0 5.8 2.6 5.8 5.8 0 2.8-2.3 5.1-5.2 5.1h-24.1z"/>
  <path class="st27" d="M95.2 129.2H40.4M33.8 129.2h-5.7M33.7 129.2H14.6M292 120.4h-60.4M224 120.4h-6.6M209.5 120.4h-68.4M87.7 138.7H28.1M237.1 111.8h-33.4M288.4 283.7H151.6M144 283.7h-6.7M129.5 283.7H95.3M180.6 275.1h-33.4M105.3 138.7H95.2M333.6 120.2h-33.4M177.6 129.2h-73.8M157.3 292.9h-33.4M115.2 292.9H53.4"/>
  <g>
    <path class="st1" d="M317.7 161.8c-5.4-1-25.4-3.7-59.4-3.7-19.7 0-35.3 3.1-49.2 6.1-9.8 2.4-18.3 4.1-26.1 4.1s-16.3-2-26.1-4.1c-13.9-2.7-29.5-6.1-49.2-6.1-33.6 0-54 3.1-59.4 3.7-3.4.3-5.8 3.1-5.8 6.4v15.6c0 2.4 1.4 4.8 3.7 5.8.7.3 5.1 3.1 7.1 15.6.3 2.4.3 4.8.7 7.5 1.7 18.3 3.7 45.8 58.4 45.8 47.2 0 55-29.9 60.4-49.9 3.4-12.6 5.1-17.6 10.2-17.6s6.8 5.1 10.2 17.6c5.4 20 13.2 49.9 60.4 49.9 54.6 0 56.7-27.5 58.4-45.8 0-2.7.3-5.4.7-7.5 1.7-12.2 6.1-15.3 7.1-15.6 2.4-1 3.7-3.4 3.7-5.8v-15.6c0-3-2.4-5.7-5.8-6.4zm-156.8 33.9c-.3.7-1 51.2-50.9 51.2-15.9 0-27.5-4.1-35-12.2-6.8-7.5-9.5-18-8.5-31.6 0-.7 0-1.4.3-2.4.7-10.9 2.4-31.2 38.3-31.2 25.8 0 42.1 4.1 50.2 12.2 5.4 5.4 5.4 11.5 5.4 13.6v.4zm130.3 39.4c-7.5 7.8-19.3 11.9-35.3 11.9-49.9 0-50.6-50.6-50.6-50.9 0-2.4 0-8.5 5.4-13.9 8.1-8.1 24.4-12.2 50.2-12.2 36 0 37.3 20.4 38.3 31.2 0 .7 0 1.7.3 2.4 1.6 13.8-1.5 24-8.3 31.5z"/>
    <path class="st25" d="M245.6 258.5c-47.2 0-55-29.9-60.4-49.9-3.4-12.6-5.1-17.6-10.2-17.6s-6.8 5.1-10.2 17.6c-5.4 20-13.2 49.9-60.4 49.9-54.6 0-56.7-27.5-58.4-45.8-.3-2.7-.3-5.1-.7-7.5-2-12.6-6.4-15.3-7.1-15.6-2.4-1-3.7-3.4-3.7-5.8v-15.6c0-3.4 2.4-6.1 5.8-6.4 5.4-.7 25.8-3.7 59.4-3.7 19.7 0 35.3 3.4 49.2 6.1 9.8 2 18.3 4.1 26.1 4.1 7.8 0 16.3-1.7 26.1-4.1 13.9-3.1 29.5-6.1 49.2-6.1 33.9 0 54 2.7 59.4 3.7 3.4.7 5.8 3.4 5.8 6.4v15.6c0 2.4-1.4 4.8-3.7 5.8-1 .3-5.4 3.4-7.1 15.6-.3 2-.7 4.8-.7 7.5-1.7 18.3-3.8 45.8-58.4 45.8z"/>
    <path class="st25" d="M248 246.9c-49.9 0-50.6-50.6-50.6-50.9 0-2.4 0-8.5 5.4-13.9 8.1-8.1 24.4-12.2 50.2-12.2 36 0 37.3 20.4 38.3 31.2 0 .7 0 1.7.3 2.4 1.4 13.9-1.7 24.1-8.5 31.6-7.3 7.8-19.2 11.8-35.1 11.8zM102 246.9c-15.9 0-27.5-4.1-35-12.2-6.8-7.5-9.5-18-8.5-31.6 0-.7 0-1.4.3-2.4.7-10.9 2.4-31.2 38.3-31.2 25.8 0 42.1 4.1 50.2 12.2 5.4 5.4 5.4 11.5 5.4 13.6v.3c-.1.8-.8 51.3-50.7 51.3z"/>
  </g>
</svg>
